<svg width="661" height="820" xmlns="http://www.w3.org/2000/svg" xmlns:xlink="http://www.w3.org/1999/xlink" xml:space="preserve" overflow="hidden"><g transform="translate(-993 -1684)"><rect x="998" y="1689" width="650" height="650" stroke="#00196F" stroke-width="10.3125" stroke-linejoin="round" stroke-miterlimit="10" fill="none"/><g><g><g><path d="M1232.65 2056.67 1250.35 2056.67C1251.86 2056.67 1253.01 2057.82 1253.01 2059.32 1253.01 2060.83 1251.86 2061.98 1250.35 2061.98L1232.65 2061.98C1231.14 2061.98 1229.99 2060.83 1229.99 2059.32 1229.99 2057.82 1231.14 2056.67 1232.65 2056.67Z" fill="#00196F"/><path d="M1232.65 2065.52 1250.35 2065.52C1251.86 2065.52 1253.01 2066.67 1253.01 2068.18 1253.01 2069.68 1251.86 2070.83 1250.35 2070.83L1232.65 2070.83C1231.14 2070.83 1229.99 2069.68 1229.99 2068.18 1229.99 2066.67 1231.14 2065.52 1232.65 2065.52Z" fill="#00196F"/><path d="M1235.74 2074.37C1236.01 2077.39 1238.49 2079.69 1241.5 2079.69 1244.51 2079.69 1246.99 2077.39 1247.26 2074.37L1235.74 2074.37Z" fill="#00196F"/><path d="M1241.5 2005.31C1241.5 2005.31 1241.5 2005.31 1241.5 2005.31 1241.5 2005.31 1241.5 2005.31 1241.5 2005.31 1228.93 2005.4 1218.74 2015.49 1218.48 2028.07L1218.48 2028.86C1218.57 2031.61 1219.1 2034.27 1220.07 2036.83 1221.05 2039.22 1222.38 2041.44 1224.06 2043.39 1226.18 2045.69 1228.48 2050.2 1229.46 2052.15 1229.72 2052.77 1230.34 2053.12 1231.05 2053.12L1251.95 2053.12C1252.66 2053.12 1253.28 2052.77 1253.54 2052.15 1254.52 2050.2 1256.82 2045.69 1258.94 2043.39 1260.62 2041.44 1262.04 2039.22 1262.93 2036.83 1263.9 2034.27 1264.43 2031.61 1264.52 2028.86L1264.52 2028.07C1264.26 2015.49 1254.07 2005.4 1241.5 2005.31ZM1259.21 2028.78C1259.12 2030.9 1258.68 2033.03 1257.97 2034.97 1257.26 2036.74 1256.29 2038.43 1254.96 2039.84 1252.92 2042.32 1251.15 2044.98 1249.82 2047.81L1241.5 2047.81 1233.27 2047.81C1231.85 2044.98 1230.08 2042.32 1228.13 2039.84 1226.89 2038.43 1225.83 2036.74 1225.12 2034.97 1224.32 2033.03 1223.97 2030.9 1223.88 2028.78L1223.88 2028.07C1224.06 2018.42 1231.94 2010.62 1241.59 2010.54L1241.59 2010.54 1241.59 2010.54C1241.59 2010.54 1241.59 2010.54 1241.59 2010.54 1241.59 2010.54 1241.59 2010.54 1241.59 2010.54L1241.59 2010.54 1241.59 2010.54C1251.24 2010.62 1259.12 2018.33 1259.3 2028.07L1259.3 2028.78Z" fill="#00196F"/></g></g></g><rect x="1114.5" y="1995.5" width="261" height="259" stroke="#00196F" stroke-width="20.625" stroke-linejoin="round" stroke-miterlimit="10" fill="none"/><g><g><g><path d="M36.302 58.4374C36.302 61.6159 33.7253 64.1926 30.5468 64.1926 27.3683 64.1926 24.7916 61.6159 24.7916 58.4374 24.7916 55.2589 27.3683 52.6822 30.5468 52.6822 33.7253 52.6822 36.302 55.2589 36.302 58.4374Z" fill="#00196F" transform="matrix(-1 0 0 1 1370 2176)"/><path d="M71.7187 58.4374C71.7187 61.6159 69.142 64.1926 65.9635 64.1926 62.785 64.1926 60.2083 61.6159 60.2083 58.4374 60.2083 55.2589 62.785 52.6822 65.9635 52.6822 69.142 52.6822 71.7187 55.2589 71.7187 58.4374Z" fill="#00196F" transform="matrix(-1 0 0 1 1370 2176)"/><path d="M73.5692 43.3854 67.3713 43.3854C66.5827 43.4029 65.8247 43.0803 65.2905 42.5L55.9229 33.1411C54.8407 31.9022 53.3205 31.131 51.6817 30.9895L29.8651 30.9895C28.2305 31.146 26.7156 31.9145 25.6239 33.1411L16.389 42.5C15.8141 43.0672 15.4944 43.8438 15.5036 44.6515L15.5036 49.5833 11.0765 49.5833C10.3431 49.5881 9.74453 48.9975 9.73957 48.264 9.73957 48.2611 9.73957 48.2581 9.73957 48.2551L9.73957 32.9286C11.8941 32.1672 13.3204 30.1134 13.2812 27.8286L13.2812 24.7916 11.5104 24.7916 11.5104 21.25C11.5104 20.761 11.114 20.3646 10.625 20.3646 10.136 20.3646 9.73957 20.761 9.73957 21.25L9.73957 24.7916 7.08332 24.7916 7.08332 21.25C7.08332 20.761 6.68691 20.3646 6.19791 20.3646 5.70891 20.3646 5.31249 20.761 5.31249 21.25L5.31249 24.7916 3.54166 24.7916 3.54166 27.8286C3.5025 30.1134 4.92878 32.1672 7.08332 32.9286L7.08332 48.2551C7.08819 50.4536 8.86921 52.2346 11.0677 52.2395L15.4948 52.2395 15.4948 52.2395C15.5045 55.525 18.1681 58.1846 21.4536 58.1895L22.1974 58.1895C22.1827 53.681 25.8257 50.0141 30.3342 49.9994 30.352 49.9993 30.3698 49.9993 30.3875 49.9994 34.9731 50.0819 38.6318 53.8513 38.5776 58.4374L57.9327 58.4374C57.9029 53.8685 61.5546 50.126 66.1228 50.0437 70.6314 50.029 74.2982 53.672 74.3129 58.1806 74.313 58.1983 74.313 58.2161 74.3129 58.2338L78.0405 58.2338C79.6816 58.2289 81.0107 56.8998 81.0155 55.2588L81.0155 50.8317C81.0254 46.729 77.7074 43.3952 73.6047 43.3854 73.5928 43.3854 73.581 43.3854 73.5692 43.3854ZM38.9583 43.3854 19.7359 43.3854 27.7843 35.3015C28.4341 34.7638 29.2617 34.489 30.1041 34.5312L38.9583 34.5312ZM41.6145 43.3854 41.6145 34.5312 51.7525 34.5312C52.5283 34.4695 53.2921 34.7511 53.8421 35.3015L61.8817 43.3854Z" fill="#00196F" transform="matrix(-1 0 0 1 1370 2176)"/></g></g></g><g><g><g><path d="M1264.88 2227.62C1261.13 2226.87 1257.49 2229.3 1256.74 2233.04 1255.99 2236.79 1258.42 2240.43 1262.17 2241.18 1265.91 2241.93 1269.56 2239.5 1270.31 2235.75 1270.48 2234.86 1270.49 2233.94 1270.31 2233.04 1269.76 2230.31 1267.62 2228.17 1264.88 2227.62ZM1264.7 2239.41C1261.93 2240.05 1259.16 2238.33 1258.52 2235.56 1258.34 2234.79 1258.34 2233.99 1258.52 2233.22 1258.95 2231.31 1260.44 2229.82 1262.35 2229.39 1265.12 2228.74 1267.89 2230.47 1268.53 2233.24 1268.71 2234.01 1268.71 2234.81 1268.53 2235.58 1268.1 2237.48 1266.61 2238.97 1264.7 2239.41Z" fill="#00196F"/><path d="M1254.88 2233.67 1238.28 2233.67C1238.3 2233.91 1238.31 2234.15 1238.31 2234.4 1238.31 2234.75 1238.29 2235.09 1238.24 2235.44L1254.91 2235.44C1254.87 2235.09 1254.85 2234.75 1254.84 2234.4 1254.84 2234.15 1254.86 2233.91 1254.88 2233.67Z" fill="#00196F"/><path d="M1271.94 2220.18 1265.87 2220.18C1265.86 2220.18 1265.85 2220.17 1265.83 2220.17L1265.55 2220.17C1264.77 2220.18 1264.02 2219.85 1263.49 2219.27L1253.89 2209.74C1252.74 2208.6 1251.17 2207.97 1249.54 2207.99L1228.57 2207.99C1226.95 2207.98 1225.39 2208.61 1224.23 2209.74L1214.77 2219.27C1214.18 2219.86 1213.85 2220.65 1213.86 2221.48L1213.86 2227.47 1211.4 2227.47C1209.93 2227.47 1208.74 2226.28 1208.74 2224.81L1208.74 2209.67C1210.8 2209.25 1212.28 2207.44 1212.29 2205.33L1212.29 2201.79 1210.96 2201.79 1210.96 2198.25C1210.96 2197.76 1210.56 2197.36 1210.07 2197.36 1209.58 2197.36 1209.19 2197.76 1209.19 2198.25L1209.19 2201.79 1206.53 2201.79 1206.53 2198.25C1206.53 2197.76 1206.13 2197.36 1205.64 2197.36 1205.16 2197.36 1204.76 2197.76 1204.76 2198.25L1204.76 2201.79 1203.43 2201.79 1203.43 2205.33C1203.43 2207.44 1204.91 2209.25 1206.97 2209.67L1206.97 2224.81C1206.97 2227.26 1208.96 2229.24 1211.4 2229.24L1213.86 2229.24 1213.86 2229.34C1213.87 2232.7 1216.59 2235.43 1219.96 2235.44L1221.02 2235.44C1220.97 2235.09 1220.95 2234.75 1220.95 2234.4 1220.95 2234.15 1220.97 2233.91 1220.99 2233.67L1219.96 2233.67C1217.57 2233.67 1215.63 2231.73 1215.63 2229.34L1215.63 2221.94 1265.55 2221.94C1265.58 2221.94 1265.6 2221.95 1265.63 2221.95L1271.95 2221.95C1275.19 2221.95 1277.81 2224.57 1277.81 2227.8L1277.81 2232.39C1277.81 2233.09 1277.23 2233.67 1276.53 2233.67L1272.17 2233.67C1272.19 2233.91 1272.21 2234.15 1272.21 2234.4 1272.2 2234.75 1272.18 2235.09 1272.14 2235.44L1276.53 2235.44C1278.21 2235.43 1279.57 2234.07 1279.58 2232.39L1279.58 2227.81C1279.56 2223.6 1276.15 2220.19 1271.94 2220.18ZM1205.2 2205.23 1205.2 2203.56 1210.51 2203.56 1210.51 2205.33C1210.51 2206.8 1209.32 2207.99 1207.85 2207.99 1207.68 2207.99 1207.5 2207.97 1207.33 2207.94 1206.07 2207.65 1205.18 2206.52 1205.2 2205.23ZM1252.64 2211 1261.88 2220.17 1238.85 2220.17 1238.85 2209.76 1249.54 2209.76C1250.7 2209.74 1251.82 2210.18 1252.64 2211ZM1225.48 2211C1226.31 2210.19 1227.42 2209.75 1228.57 2209.76L1237.08 2209.76 1237.08 2220.17 1216.4 2220.17C1216.39 2220.17 1216.38 2220.17 1216.39 2220.16Z" fill="#00196F"/><path d="M1230.99 2227.62C1227.24 2226.87 1223.6 2229.3 1222.85 2233.04 1222.1 2236.79 1224.53 2240.43 1228.27 2241.18 1232.02 2241.93 1235.66 2239.5 1236.41 2235.75 1236.59 2234.86 1236.59 2233.94 1236.41 2233.04 1235.86 2230.31 1233.72 2228.17 1230.99 2227.62ZM1230.81 2239.41C1228.04 2240.05 1225.27 2238.33 1224.62 2235.56 1224.44 2234.79 1224.44 2233.99 1224.62 2233.22 1225.06 2231.31 1226.55 2229.82 1228.45 2229.39 1231.23 2228.74 1234 2230.47 1234.64 2233.24 1234.82 2234.01 1234.82 2234.81 1234.64 2235.58 1234.2 2237.48 1232.71 2238.97 1230.81 2239.41Z" fill="#00196F"/></g></g></g><g><g><g><path d="M70.4583 53.0559 70.4583 15.0464 5.54166 15.0464 5.54166 53.0559 70.4583 53.0559ZM7.125 16.6297 68.875 16.6297 68.875 51.4726 7.125 51.4726Z" fill="#00196F" transform="matrix(-1 0 0 1 1368 2092)"/><path d="M74.4166 57.0158 74.4166 11.0833 1.58333 11.0833 1.58333 57.0158 28.5 57.0158 28.5 63.3491 10.2917 63.3491 10.2917 64.9325 65.7083 64.9325 65.7083 63.3491 47.5 63.3491 47.5 57.0158ZM3.16667 12.6667 72.8333 12.6667 72.8333 55.4325 3.16667 55.4325ZM45.9166 63.3515 30.0833 63.3515 30.0833 57.0182 45.9166 57.0182Z" fill="#00196F" transform="matrix(-1 0 0 1 1368 2092)"/></g></g></g><g><g><g><path d="M1360.48 2162.15C1360.99 2162.15 1361.39 2162.54 1361.39 2163.05 1361.39 2163.57 1360.99 2163.96 1360.48 2163.96 1359.97 2163.96 1359.57 2163.57 1359.57 2163.05 1359.57 2162.54 1359.97 2162.15 1360.48 2162.15ZM1360.48 2159.12C1360.99 2159.12 1361.39 2159.52 1361.39 2160.03 1361.39 2160.54 1360.99 2160.94 1360.48 2160.94 1359.97 2160.94 1359.57 2160.54 1359.57 2160.03 1359.57 2159.52 1359.97 2159.12 1360.48 2159.12ZM1360.48 2156.1C1360.99 2156.1 1361.39 2156.5 1361.39 2157.01 1361.39 2157.52 1360.99 2157.92 1360.48 2157.92 1359.97 2157.92 1359.57 2157.52 1359.57 2157.01 1359.57 2156.5 1359.97 2156.1 1360.48 2156.1ZM1360.15 2149.34 1361.48 2148.67C1361.57 2148.61 1361.69 2148.7 1361.69 2148.79L1361.69 2150.12C1361.69 2150.24 1361.57 2150.3 1361.48 2150.24L1360.15 2149.58C1360.03 2149.55 1360.03 2149.37 1360.15 2149.34ZM1363.5 2162.15C1364.01 2162.15 1364.41 2162.54 1364.41 2163.05 1364.41 2163.57 1364.01 2163.96 1363.5 2163.96 1362.99 2163.96 1362.59 2163.57 1362.59 2163.05 1362.59 2162.54 1362.99 2162.15 1363.5 2162.15ZM1363.5 2159.12C1364.01 2159.12 1364.41 2159.52 1364.41 2160.03 1364.41 2160.54 1364.01 2160.94 1363.5 2160.94 1362.99 2160.94 1362.59 2160.54 1362.59 2160.03 1362.59 2159.52 1362.99 2159.12 1363.5 2159.12ZM1363.5 2156.1C1364.01 2156.1 1364.41 2156.5 1364.41 2157.01 1364.41 2157.52 1364.01 2157.92 1363.5 2157.92 1362.99 2157.92 1362.59 2157.52 1362.59 2157.01 1362.59 2156.5 1362.99 2156.1 1363.5 2156.1ZM1364.29 2151.48 1363.62 2152.81C1363.56 2152.93 1363.41 2152.93 1363.35 2152.81L1362.68 2151.48C1362.62 2151.39 1362.71 2151.27 1362.81 2151.27L1364.13 2151.27C1364.29 2151.27 1364.35 2151.39 1364.29 2151.48ZM1363.5 2148.55C1364.01 2148.55 1364.41 2148.94 1364.41 2149.46 1364.41 2149.97 1364.01 2150.36 1363.5 2150.36 1362.99 2150.36 1362.59 2149.97 1362.59 2149.46 1362.59 2148.94 1362.99 2148.55 1363.5 2148.55ZM1362.71 2147.43 1363.38 2146.1C1363.44 2145.98 1363.59 2145.98 1363.65 2146.1L1364.32 2147.43C1364.38 2147.52 1364.29 2147.65 1364.19 2147.65L1362.87 2147.65C1362.71 2147.65 1362.65 2147.52 1362.71 2147.43ZM1365.31 2148.79C1365.31 2148.67 1365.43 2148.61 1365.52 2148.67L1366.85 2149.34C1366.97 2149.4 1366.97 2149.55 1366.85 2149.61L1365.52 2150.27C1365.43 2150.33 1365.31 2150.24 1365.31 2150.15L1365.31 2148.79ZM1367.43 2157.01C1367.43 2157.52 1367.03 2157.92 1366.52 2157.92 1366.01 2157.92 1365.61 2157.52 1365.61 2157.01 1365.61 2156.5 1366.01 2156.1 1366.52 2156.1 1367.03 2156.1 1367.43 2156.5 1367.43 2157.01ZM1366.52 2160.94C1366.01 2160.94 1365.61 2160.54 1365.61 2160.03 1365.61 2159.52 1366.01 2159.12 1366.52 2159.12 1367.03 2159.12 1367.43 2159.52 1367.43 2160.03 1367.43 2160.54 1367.03 2160.94 1366.52 2160.94ZM1366.52 2163.96C1366.01 2163.96 1365.61 2163.57 1365.61 2163.05 1365.61 2162.54 1366.01 2162.15 1366.52 2162.15 1367.03 2162.15 1367.43 2162.54 1367.43 2163.05 1367.43 2163.57 1367.03 2163.96 1366.52 2163.96ZM1358.97 2168.79 1368.03 2168.79C1368.7 2168.79 1369.24 2168.25 1369.24 2167.58L1369.24 2143.42C1369.24 2142.75 1368.7 2142.21 1368.03 2142.21L1358.97 2142.21C1358.3 2142.21 1357.76 2142.75 1357.76 2143.42L1357.76 2167.58C1357.76 2168.25 1358.3 2168.79 1358.97 2168.79Z" fill="#00196F"/></g></g></g><g><g><g><path d="M48.927 39.3919 48.927 16.5208 12.0729 16.5208 12.0729 39.4021ZM13.3437 17.7916 47.6561 17.7916 47.6561 38.1204 13.3437 38.1313Z" fill="#00196F" transform="matrix(-1 0 0 1.00001 1362 2010)"/><path d="M10.1666 15.8854C10.1666 15.1835 10.7356 14.6145 11.4375 14.6145L49.5624 14.6145C50.2642 14.6145 50.8332 15.1835 50.8332 15.8854L50.8332 41.9456 52.104 41.9456 52.104 15.8854C52.104 14.4817 50.9661 13.3437 49.5624 13.3437L11.4375 13.3437C10.0338 13.3437 8.89581 14.4817 8.89581 15.8854L8.89581 41.9456 10.1666 41.9456Z" fill="#00196F" transform="matrix(-1 0 0 1.00001 1362 2010)"/><path d="M33.677 43.8398 33.677 45.1107 27.3228 45.1107 27.3228 43.8398 1.27083 43.8398 1.27083 45.1107C1.27293 46.8645 2.69413 48.2856 4.4479 48.2877L56.5519 48.2877C58.3057 48.2856 59.7269 46.8645 59.729 45.1107L59.729 43.8398ZM56.5519 47.0169 4.4479 47.0169C3.39512 47.0169 2.54166 46.1635 2.54166 45.1107L26.052 45.1107C26.0288 45.7893 26.5602 46.3583 27.2388 46.3815 27.2668 46.3824 27.2948 46.3824 27.3228 46.3815L33.677 46.3815C34.3556 46.4047 34.9246 45.8733 34.9478 45.1947 34.9488 45.1667 34.9488 45.1387 34.9478 45.1107L58.4582 45.1107C58.4582 46.1635 57.6047 47.0169 56.5519 47.0169Z" fill="#00196F" transform="matrix(-1 0 0 1.00001 1362 2010)"/></g></g></g><g><g><g><path d="M64.1297 10.2917 64.1297 5.54166 11.8797 5.54166 11.8797 8.70833 11.8797 8.70833 11.8797 25.3333 11.8797 25.3333 11.8797 70.4583 64.1297 70.4583 64.1297 19.7917 64.1297 19.7917 64.1297 10.2917ZM38.0047 59.375C29.4788 59.375 22.5672 52.4634 22.5672 43.9375 22.5672 35.4116 29.4788 28.5 38.0047 28.5 46.5307 28.5 53.4422 35.4116 53.4422 43.9375 53.4422 52.4634 46.5307 59.375 38.0047 59.375ZM59.3797 19.7917 16.6297 19.7917 16.6297 10.2917 59.3797 10.2917Z" fill="#00196F" transform="matrix(-1 0 0 1 1276 2096)"/><path d="M21.3789 12.6667 30.8789 12.6667 30.8789 17.4167 21.3789 17.4167Z" fill="#00196F" transform="matrix(-1 0 0 1 1276 2096)"/><path d="M38.0047 31.6667C31.2278 31.6667 25.7339 37.1605 25.7339 43.9375 25.7339 50.7145 31.2278 56.2083 38.0047 56.2083 44.7817 56.2083 50.2756 50.7145 50.2756 43.9375 50.2681 37.1636 44.7786 31.6741 38.0047 31.6667ZM47.0923 44.2716C46.1492 45.215 44.6198 45.2152 43.6764 44.2721 43.6313 44.227 43.5879 44.18 43.5464 44.1314 42.6796 43.1111 41.1498 42.9868 40.1295 43.8536 40.0295 43.9386 39.9366 44.0315 39.8517 44.1314 38.9853 45.1515 37.456 45.276 36.436 44.4096 36.3358 44.3246 36.2428 44.2316 36.1578 44.1314 35.291 43.1111 33.7612 42.9868 32.7409 43.8536 32.6409 43.9386 32.548 44.0315 32.4631 44.1314 31.5974 45.1464 30.0728 45.2673 29.058 44.4016 29.0093 44.3602 28.9624 44.3168 28.9172 44.2716 28.9132 44.1599 28.9006 44.0507 28.9006 43.9375 28.9006 38.9094 32.9766 34.8333 38.0047 34.8333 43.0328 34.8333 47.1089 38.9094 47.1089 43.9375 47.1089 44.0507 47.0962 44.1599 47.0923 44.2716Z" fill="#00196F" transform="matrix(-1 0 0 1 1276 2096)"/><path d="M41.9623 15.0417C41.9623 16.3533 40.8989 17.4167 39.5873 17.4167 38.2756 17.4167 37.2123 16.3533 37.2123 15.0417 37.2123 13.73 38.2756 12.6667 39.5873 12.6667 40.8989 12.6667 41.9623 13.73 41.9623 15.0417Z" fill="#00196F" transform="matrix(-1 0 0 1 1276 2096)"/><path d="M49.0873 15.0417C49.0873 16.3533 48.0239 17.4167 46.7123 17.4167 45.4006 17.4167 44.3373 16.3533 44.3373 15.0417 44.3373 13.73 45.4006 12.6667 46.7123 12.6667 48.0239 12.6667 49.0873 13.73 49.0873 15.0417Z" fill="#00196F" transform="matrix(-1 0 0 1 1276 2096)"/><path d="M56.2123 15.0417C56.2123 16.3533 55.1489 17.4167 53.8373 17.4167 52.5256 17.4167 51.4623 16.3533 51.4623 15.0417 51.4623 13.73 52.5256 12.6667 53.8373 12.6667 55.1489 12.6667 56.2123 13.73 56.2123 15.0417Z" fill="#00196F" transform="matrix(-1 0 0 1 1276 2096)"/></g></g></g><rect x="1199" y="1995" width="87" height="97.9999" stroke="#00196F" stroke-width="10.3125" stroke-linejoin="round" stroke-miterlimit="10" fill="none"/><rect x="1286" y="1995" width="89" height="97.9999" stroke="#00196F" stroke-width="10.3125" stroke-linejoin="round" stroke-miterlimit="10" fill="none"/><rect x="1199" y="2172" width="176" height="81.9998" stroke="#00196F" stroke-width="10.3125" stroke-linejoin="round" stroke-miterlimit="10" fill="none"/><rect x="1285" y="2093" width="90.0001" height="79" stroke="#00196F" stroke-width="10.3125" stroke-linejoin="round" stroke-miterlimit="10" fill="none"/><path d="M1187.48 2237.55C1186.17 2237.55 1185.12 2238.68 1185.12 2240.06 1185.12 2241.45 1186.17 2242.57 1187.48 2242.57 1188.78 2242.57 1189.83 2241.45 1189.83 2240.06 1189.83 2238.68 1188.78 2237.55 1187.48 2237.55ZM1187.48 2230.7C1186.17 2230.7 1185.12 2231.82 1185.12 2233.2 1185.12 2234.59 1186.17 2235.71 1187.48 2235.71 1188.78 2235.71 1189.83 2234.59 1189.83 2233.2 1189.83 2231.82 1188.78 2230.7 1187.48 2230.7ZM1168.04 2224.12C1166.07 2224.12 1164.47 2225.75 1164.47 2227.77 1164.47 2229.78 1166.07 2231.41 1168.04 2231.41 1170.02 2231.41 1171.62 2229.78 1171.62 2227.77 1171.62 2225.75 1170.02 2224.12 1168.04 2224.12ZM1140.32 2224.12C1138.34 2224.12 1136.74 2225.75 1136.74 2227.77 1136.74 2229.78 1138.34 2231.41 1140.32 2231.41 1142.29 2231.41 1143.9 2229.78 1143.9 2227.77 1143.9 2225.75 1142.29 2224.12 1140.32 2224.12ZM1187.38 2223.84C1186.08 2223.84 1185.02 2224.96 1185.02 2226.35 1185.02 2227.73 1186.08 2228.85 1187.38 2228.85 1188.68 2228.85 1189.74 2227.73 1189.74 2226.35 1189.74 2224.96 1188.68 2223.84 1187.38 2223.84ZM1168.04 2218.6C1173.01 2218.6 1177.04 2222.71 1177.04 2227.77 1177.04 2232.83 1173.01 2236.93 1168.04 2236.93 1163.08 2236.93 1159.05 2232.83 1159.05 2227.77 1159.05 2222.71 1163.08 2218.6 1168.04 2218.6ZM1140.32 2218.6C1145.29 2218.6 1149.31 2222.71 1149.31 2227.77 1149.31 2232.83 1145.29 2236.93 1140.32 2236.93 1135.35 2236.93 1131.33 2232.83 1131.33 2227.77 1131.33 2222.71 1135.35 2218.6 1140.32 2218.6ZM1187.28 2216.98C1185.98 2216.98 1184.92 2218.1 1184.92 2219.49 1184.92 2220.87 1185.98 2222 1187.28 2222 1188.58 2222 1189.64 2220.87 1189.64 2219.49 1189.64 2218.1 1188.58 2216.98 1187.28 2216.98ZM1168.04 2216.25C1161.8 2216.25 1156.74 2221.41 1156.74 2227.77 1156.74 2234.13 1161.8 2239.28 1168.04 2239.28 1174.29 2239.28 1179.35 2234.13 1179.35 2227.77 1179.35 2221.41 1174.29 2216.25 1168.04 2216.25ZM1140.32 2216.25C1134.08 2216.25 1129.02 2221.41 1129.02 2227.77 1129.02 2234.13 1134.08 2239.28 1140.32 2239.28 1146.56 2239.28 1151.62 2234.13 1151.62 2227.77 1151.62 2221.41 1146.56 2216.25 1140.32 2216.25ZM1168.04 2196.59C1166.07 2196.59 1164.47 2198.22 1164.47 2200.23 1164.47 2202.25 1166.07 2203.88 1168.04 2203.88 1170.02 2203.88 1171.62 2202.25 1171.62 2200.23 1171.62 2198.22 1170.02 2196.59 1168.04 2196.59ZM1140.32 2196.59C1138.34 2196.59 1136.74 2198.22 1136.74 2200.23 1136.74 2202.25 1138.34 2203.88 1140.32 2203.88 1142.29 2203.88 1143.9 2202.25 1143.9 2200.23 1143.9 2198.22 1142.29 2196.59 1140.32 2196.59ZM1168.04 2191.07C1173.01 2191.07 1177.04 2195.17 1177.04 2200.23 1177.04 2205.29 1173.01 2209.4 1168.04 2209.4 1163.08 2209.4 1159.05 2205.29 1159.05 2200.23 1159.05 2195.17 1163.08 2191.07 1168.04 2191.07ZM1140.32 2191.07C1145.29 2191.07 1149.31 2195.17 1149.31 2200.23 1149.31 2205.29 1145.29 2209.4 1140.32 2209.4 1135.35 2209.4 1131.33 2205.29 1131.33 2200.23 1131.33 2195.17 1135.35 2191.07 1140.32 2191.07ZM1168.04 2188.72C1161.8 2188.72 1156.74 2193.87 1156.74 2200.23 1156.74 2206.59 1161.8 2211.75 1168.04 2211.75 1174.29 2211.75 1179.35 2206.59 1179.35 2200.23 1179.35 2193.87 1174.29 2188.72 1168.04 2188.72ZM1140.32 2188.72C1134.08 2188.72 1129.02 2193.87 1129.02 2200.23 1129.02 2206.59 1134.08 2211.75 1140.32 2211.75 1146.56 2211.75 1151.62 2206.59 1151.62 2200.23 1151.62 2193.87 1146.56 2188.72 1140.32 2188.72ZM1185.46 2184.5 1189.49 2184.5C1190.05 2184.5 1190.5 2184.98 1190.5 2185.57L1190.5 2242.43C1190.5 2243.02 1190.05 2243.5 1189.49 2243.5L1185.46 2243.5C1184.9 2243.5 1184.45 2243.02 1184.45 2242.43L1184.45 2185.57C1184.45 2184.98 1184.9 2184.5 1185.46 2184.5ZM1129.47 2184.5 1178.89 2184.5C1181.09 2184.5 1182.86 2186.39 1182.86 2188.72L1182.86 2239.28C1182.86 2241.61 1181.09 2243.5 1178.89 2243.5L1129.47 2243.5C1127.28 2243.5 1125.5 2241.61 1125.5 2239.28L1125.5 2188.72C1125.5 2186.39 1127.28 2184.5 1129.47 2184.5Z" stroke="#00196F" stroke-width="3.4375" stroke-linejoin="round" stroke-miterlimit="10" fill="#00196F" fill-rule="evenodd"/><path d="M1134.8 2055.79C1134.61 2055.79 1134.46 2055.93 1134.46 2056.11L1134.46 2092.09C1134.46 2092.27 1134.61 2092.41 1134.8 2092.41L1138.36 2092.41C1138.55 2092.41 1138.7 2092.27 1138.7 2092.09L1138.7 2056.11C1138.7 2055.93 1138.55 2055.79 1138.36 2055.79ZM1130.66 2048.46 1185.34 2048.46C1186.81 2048.46 1188 2049.6 1188 2051L1188 2148.46C1188 2149.86 1186.81 2151 1185.34 2151L1130.66 2151C1129.19 2151 1128 2149.86 1128 2148.46L1128 2051C1128 2049.6 1129.19 2048.46 1130.66 2048.46ZM1134.8 2017.68C1134.61 2017.68 1134.46 2017.82 1134.46 2018L1134.46 2034.67C1134.46 2034.85 1134.61 2034.99 1134.8 2034.99L1138.36 2034.99C1138.55 2034.99 1138.7 2034.85 1138.7 2034.67L1138.7 2018C1138.7 2017.82 1138.55 2017.68 1138.36 2017.68ZM1131.02 2010 1184.98 2010C1186.65 2010 1188 2011.29 1188 2012.88L1188 2043.74C1188 2045.33 1186.65 2046.62 1184.98 2046.62L1131.02 2046.62C1129.35 2046.62 1128 2045.33 1128 2043.74L1128 2012.88C1128 2011.29 1129.35 2010 1131.02 2010Z" fill="#00196F" fill-rule="evenodd"/><rect x="1199" y="2093" width="87" height="79" stroke="#00196F" stroke-width="10.3125" stroke-linejoin="round" stroke-miterlimit="10" fill="none"/><rect x="1278" y="2093" width="89" height="79" stroke="#00196F" stroke-width="10.3125" stroke-linejoin="round" stroke-miterlimit="10" fill="none"/><path d="M1230.43 1937.19 1227.67 1958.73 1269.88 1958.73 1267.11 1937.19ZM1182.1 1937.19 1172.47 1958.54 1172.47 1958.73 1219.51 1958.73 1222.27 1937.19ZM1274.52 1937.15 1277.22 1958.73 1319.43 1958.73 1316.53 1937.19ZM1271.74 1909.69 1274.23 1929.11 1311.8 1929.11 1303.05 1909.69ZM1233.97 1909.69 1231.47 1929.11 1266.07 1929.11 1263.58 1909.69ZM1194.5 1909.69 1185.74 1929.11 1223.31 1929.11 1225.81 1909.69ZM1268.5 1884.49 1270.7 1901.61 1299.4 1901.61 1291.69 1884.49ZM1237.2 1884.49 1235 1901.61 1262.54 1901.61 1260.34 1884.49ZM1205.86 1884.49 1198.14 1901.61 1226.84 1901.61 1229.04 1884.49ZM1251.5 1804 1430 1997 1062 1997Z" fill="#00196F" fill-rule="evenodd"/><g><g><g><path d="M1107.5 1825.19C1093.52 1825.19 1082.19 1836.52 1082.19 1850.5 1082.19 1864.48 1093.52 1875.81 1107.5 1875.81 1121.48 1875.81 1132.81 1864.48 1132.81 1850.5 1132.8 1836.53 1121.47 1825.2 1107.5 1825.19ZM1107.5 1873C1095.07 1873 1085 1862.93 1085 1850.5 1085 1838.07 1095.07 1828 1107.5 1828 1119.93 1828 1130 1838.07 1130 1850.5 1129.99 1862.92 1119.92 1872.99 1107.5 1873Z" stroke="#00196F" stroke-width="3.04511" fill="#00196F"/><path d="M1106.09 1881.44 1108.91 1881.44 1108.91 1899.72 1106.09 1899.72Z" stroke="#00196F" stroke-width="3.04511" fill="#00196F"/><path d="M1106.09 1801.28 1108.91 1801.28 1108.91 1819.56 1106.09 1819.56Z" stroke="#00196F" stroke-width="3.04511" fill="#00196F"/><path d="M1058.28 1849.09 1076.56 1849.09 1076.56 1851.91 1058.28 1851.91Z" stroke="#00196F" stroke-width="3.04511" fill="#00196F"/><path d="M1138.44 1849.09 1156.72 1849.09 1156.72 1851.91 1138.44 1851.91Z" stroke="#00196F" stroke-width="3.04511" fill="#00196F"/><path d="M1071.7 1884.31 1084.63 1871.38 1086.62 1873.37 1073.69 1886.3Z" stroke="#00196F" stroke-width="3.04511" fill="#00196F"/><path d="M1128.38 1827.63 1141.31 1814.7 1143.3 1816.69 1130.37 1829.62Z" stroke="#00196F" stroke-width="3.04511" fill="#00196F"/><path d="M1071.7 1816.69 1073.69 1814.7 1086.62 1827.63 1084.63 1829.62Z" stroke="#00196F" stroke-width="3.04511" fill="#00196F"/><path d="M1128.38 1873.37 1130.37 1871.38 1143.3 1884.31 1141.31 1886.3Z" stroke="#00196F" stroke-width="3.04511" fill="#00196F"/></g></g></g><path d="M1248.21 1873.5 1248.21 1760.5C1248.21 1759.23 1249.23 1758.21 1250.5 1758.21L1542.09 1758.21C1543.35 1758.21 1544.37 1759.23 1544.38 1760.49L1544.77 1829.83 1540.18 1829.86 1539.79 1760.51 1542.09 1762.79 1250.5 1762.79 1252.79 1760.5 1252.79 1873.5ZM1560.35 1803.4 1542.5 1834.4 1524.31 1803.6C1523.66 1802.51 1524.02 1801.11 1525.11 1800.46 1526.2 1799.82 1527.61 1800.18 1528.25 1801.27L1544.45 1828.68 1540.49 1828.7 1556.38 1801.11C1557.01 1800.02 1558.41 1799.64 1559.51 1800.27 1560.6 1800.9 1560.98 1802.3 1560.35 1803.4Z" fill="#1255C8"/><path d="M1173.18 1923.79 1038.5 1923.79 1040.79 1921.48 1044.5 2295.21 1042.22 2292.94 1274.51 2294.21 1272.21 2296.58 1271.13 2265.52 1275.71 2265.36 1276.79 2296.42C1276.81 2297.04 1276.58 2297.65 1276.14 2298.1 1275.71 2298.54 1275.11 2298.8 1274.49 2298.79L1042.19 2297.52C1040.94 2297.51 1039.93 2296.5 1039.92 2295.25L1036.21 1921.52C1036.2 1920.91 1036.44 1920.32 1036.87 1919.89 1037.3 1919.45 1037.89 1919.21 1038.5 1919.21L1173.18 1919.21ZM1256.33 2292.4 1273.26 2260.9 1292.35 2291.15C1293.02 2292.22 1292.7 2293.63 1291.63 2294.31 1290.56 2294.98 1289.15 2294.66 1288.47 2293.59L1271.48 2266.66 1275.44 2266.53 1260.36 2294.57C1259.76 2295.68 1258.37 2296.1 1257.26 2295.5 1256.14 2294.9 1255.73 2293.51 1256.33 2292.4Z" fill="#1255C8"/><path d="M1618.5 1960.49C1619.88 1960.49 1621 1958.77 1621 1956.63L1621 1937.34C1621 1935.82 1620.43 1934.45 1619.54 1933.82L1564.54 1895.23C1564.21 1895 1563.86 1894.88 1563.5 1894.89L1562.14 1894.89 1560.98 1879.02C1560.94 1878.38 1560.79 1877.77 1560.55 1877.24L1543.05 1838.65C1542.26 1836.9 1540.7 1836.48 1539.57 1837.7 1539.33 1837.96 1539.12 1838.28 1538.95 1838.65L1521.45 1877.24C1521.21 1877.77 1521.06 1878.38 1521.01 1879.02L1519.86 1894.89 1518.5 1894.89C1518.14 1894.88 1517.79 1895 1517.46 1895.23L1462.46 1933.83C1461.57 1934.45 1461 1935.82 1461 1937.34L1461 1956.63C1461 1958.77 1462.12 1960.49 1463.5 1960.49 1464.88 1960.49 1466 1958.77 1466 1956.63L1466 1941.2 1516.5 1941.2 1513.45 1982.95 1462.46 2018.73C1461.57 2019.36 1461 2020.73 1461 2022.24L1461 2041.54C1461 2043.67 1462.12 2045.4 1463.5 2045.4 1464.88 2045.4 1466 2043.67 1466 2041.54L1466 2026.1 1510.31 2026.1 1508.56 2050.23 1475.37 2178.43C1474.86 2180.41 1475.48 2182.65 1476.76 2183.44 1477.06 2183.63 1477.37 2183.72 1477.69 2183.72 1478.02 2183.72 1478.36 2183.61 1478.67 2183.41L1540.87 2142.47 1603.43 2183.69C1604.7 2184.53 1606.17 2183.61 1606.71 2181.65 1606.97 2180.71 1606.98 2179.66 1606.73 2178.71L1573.44 2050.23 1571.69 2026.1 1616 2026.1 1616 2041.54C1616 2043.67 1617.12 2045.4 1618.5 2045.4 1619.88 2045.4 1621 2043.67 1621 2041.54L1621 2022.24C1621 2020.73 1620.43 2019.36 1619.54 2018.73L1568.55 1982.95 1565.5 1941.2 1616 1941.2 1616 1956.63C1616 1958.77 1617.12 1960.49 1618.5 1960.49ZM1525.91 1880.86 1540.98 1847.63C1540.99 1847.62 1541 1847.61 1541.01 1847.62 1541.01 1847.62 1541.02 1847.63 1541.02 1847.63L1556.09 1880.86 1557.11 1894.89 1524.89 1894.89ZM1557.67 1902.6 1559.92 1933.48 1522.08 1933.48 1524.33 1902.6ZM1475.15 1933.48C1475.09 1933.48 1475.09 1933.44 1475.15 1933.41L1519.04 1902.6 1519.29 1902.6 1517.04 1933.48ZM1475.15 2018.31 1512.8 1991.89 1510.87 2018.38 1475.15 2018.38C1475.09 2018.38 1475.09 2018.35 1475.14 2018.31ZM1518.11 1988.17 1519.04 1987.51 1562.96 1987.51 1563.9 1988.17 1566.1 2018.38 1515.9 2018.38ZM1570.11 2058.11 1580.25 2097.21 1546.99 2074.14ZM1581 2106.2C1581.51 2106.57 1582.08 2106.64 1582.62 2106.41L1582.69 2106.68C1582.55 2106.71 1582.42 2106.75 1582.3 2106.81L1540.87 2134.08 1499.48 2106.81C1499.42 2106.79 1499.37 2106.77 1499.31 2106.75L1499.38 2106.46C1499.5 2106.5 1499.63 2106.53 1499.75 2106.54 1500.1 2106.54 1500.45 2106.43 1500.77 2106.2L1540.89 2078.37ZM1501.83 2097.01 1511.87 2058.24 1534.79 2074.14ZM1482.3 2172.63C1482.27 2172.63 1482.25 2172.63 1482.26 2172.58L1497.47 2113.86C1497.49 2113.86 1497.5 2113.9 1497.52 2113.91L1534.5 2138.27ZM1547.24 2138.28 1584.25 2113.91C1584.34 2113.83 1584.42 2113.75 1584.5 2113.66L1599.84 2172.85C1599.84 2172.9 1599.84 2172.93 1599.81 2172.9ZM1568.46 2050.8 1540.89 2069.91 1513.54 2050.93 1515.34 2026.1 1566.66 2026.1ZM1606.85 2018.38 1571.13 2018.38 1569.2 1991.89 1606.86 2018.31C1606.91 2018.35 1606.91 2018.38 1606.85 2018.38ZM1563.29 1979.79 1518.71 1979.79 1521.52 1941.2 1560.48 1941.2ZM1562.7 1902.6 1562.95 1902.6 1606.85 1933.41C1606.91 1933.44 1606.9 1933.48 1606.85 1933.48L1564.95 1933.48Z" fill="#00196F" fill-rule="evenodd"/><text fill="#1255C8" font-family="Arial,Arial_MSFontService,sans-serif" font-weight="400" font-size="83" transform="matrix(1 0 0 1 1134.81 2435)">Autoconso</text></g></svg>