<svg width="660" height="824" xmlns="http://www.w3.org/2000/svg" xmlns:xlink="http://www.w3.org/1999/xlink" xml:space="preserve" overflow="hidden"><g transform="translate(-996 -38)"><text fill="#1255C8" font-family="Arial,Arial_MSFontService,sans-serif" font-weight="400" font-size="83" transform="matrix(1 0 0 1 1188.69 793)">Biogaz</text><path d="M1495.17 497.799C1449.49 499.508 1445.39 527.574 1446.99 550.205 1455.14 547.023 1495.57 548.999 1495.17 497.799ZM1381.42 497.799C1381.02 548.999 1421.45 547.023 1429.61 550.205 1431.21 527.573 1427.1 499.508 1381.42 497.799ZM1373.64 489.754C1419.99 491.488 1434.7 513.276 1438.24 536.977L1438.39 538.846 1439.29 538.846 1439.44 536.977C1442.98 513.276 1457.69 491.488 1504.04 489.754 1504.51 550.354 1462.7 555.883 1444.84 559.202L1442.62 559.736 1442.62 595.875 1435.6 595.875 1435.6 559.867 1432.84 559.202C1414.98 555.883 1373.17 550.354 1373.64 489.754ZM1324.94 486.447 1325.13 605.836 1555.23 605.525C1555.11 555.291 1554.99 529.738 1554.87 491.845L1554.86 486.447ZM1212.15 399.171 1198.41 478.333 1252.28 467.648 1181.11 588.541 1193.65 513.577 1139.3 521.126ZM1091.97 382.073 1091.65 456.499C1091.43 506.788 1091.21 557.076 1090.97 604.489L1311 604.037 1311.06 593.134C1311.15 567.44 1311.1 543.626 1311.04 519.813L1311 486.447 1310.91 486.447 1310.91 445.281 1311.04 445.281 1311.18 420.1 1312.61 418.955 1312.56 382.073ZM1428.92 348.122C1388.5 376.43 1353.05 404.583 1332.52 421.012L1324.84 427.151 1324.87 445.281 1550.76 445.281ZM1250.23 268.779 1250.23 273.361C1250.23 281.235 1243.85 287.618 1235.98 287.618L1167.89 287.618C1160.01 287.618 1153.63 281.235 1153.63 273.361L1153.63 269.46 1146.77 273.827C1128.65 285.133 1110.53 296.438 1092.32 308.509L1092.21 330.87 1312.48 330.87 1312.44 306.399ZM1223.29 181.484 1223.29 202.079 1235.98 202.079C1243.85 202.079 1250.23 208.462 1250.23 216.335L1250.23 256.258 1324.65 302.115 1324.82 409.201 1330.78 404.446C1344.02 393.921 1360.77 380.781 1379.78 366.475L1380.96 365.601 1380.63 337.833C1380.63 329.959 1387.01 323.576 1394.89 323.576L1405.08 323.576 1405.08 181.484ZM1183.52 138.109C1183.41 143.136 1183.23 168.159 1183.12 192.501L1183.09 202.079 1216.73 202.079 1216.74 192.685C1216.75 185.552 1216.79 178.68 1216.84 172.85 1281.8 173.304 1404.68 173.417 1412.37 173.531 1412.13 206.142 1412.25 278.768 1412.46 315.448L1412.51 323.576 1445.1 323.576 1445.25 286.942C1445.29 237.444 1444.97 189.957 1445.37 138.449ZM1176.11 131.296 1221.7 131.296 1223.29 131.296 1405.08 131.296 1421.23 131.296 1452.26 131.296 1452.26 323.576 1462.98 323.576C1470.85 323.576 1477.23 329.959 1477.23 337.833 1477.18 344.962 1477.6 358.295 1477.9 368.486L1477.99 371.805 1568.2 443.742C1568.38 518.558 1568.55 544.361 1568.73 619.177L1310.91 619.525 1310.92 617.161 1078.72 617.621C1079.26 515.977 1079.3 405.292 1079.84 303.648L1153.63 256.423 1153.63 216.335C1153.63 208.462 1160.01 202.079 1167.89 202.079L1176.11 202.079Z" fill="#00196F" fill-rule="evenodd"/><rect x="1001" y="43" width="650" height="650" stroke="#00196F" stroke-width="10.3125" stroke-linejoin="round" stroke-miterlimit="10" fill="none"/></g></svg>