<svg width="660" height="824" xmlns="http://www.w3.org/2000/svg" xmlns:xlink="http://www.w3.org/1999/xlink" xml:space="preserve" overflow="hidden"><g transform="translate(-172 -38)"><text fill="#1255C8" font-family="Arial,Arial_MSFontService,sans-serif" font-weight="400" font-size="83" transform="matrix(1 0 0 1 310.232 793)">Biomasse</text><path d="M676.893 566.247C675.478 566.247 674.332 570.052 674.332 574.749 674.332 579.445 675.484 583.25 676.893 583.25 678.301 583.25 679.453 579.445 679.453 574.749 679.453 570.053 678.307 566.247 676.893 566.247ZM676.893 558.96C681.841 558.96 685.853 566.029 685.853 574.749 685.853 583.468 681.841 590.537 676.893 590.537 671.944 590.537 667.932 583.468 667.932 574.749 667.932 566.028 671.944 558.96 676.893 558.96ZM468.349 549.989 464.953 567.827C464.953 577.68 466.481 585.665 468.349 585.665 470.216 585.665 471.744 577.68 471.744 567.827 471.744 557.976 470.224 549.989 468.349 549.989ZM673.563 545.75C678.058 545.75 681.311 548.803 683.439 553.371L684.111 555.582 682.647 554.164C680.933 552.906 679.399 550.912 676.563 552.185 673.727 553.458 668.039 553.779 665.631 561.801 664.03 567.133 665.561 581.342 666.102 584.029L669.802 592.071C669.586 591.839 675.019 599.506 674.803 599.273 663.121 592.656 660.553 577.642 660.553 570.073 660.553 557.963 664.575 545.75 673.563 545.75ZM492.067 536.856C490.913 536.86 489.76 536.864 488.606 536.868L491.01 543.582 493.18 541.706 492.444 541.705ZM468.349 534.7C474.912 534.7 480.232 549.532 480.232 567.827 480.232 586.122 474.912 600.954 468.349 600.954 461.785 600.954 456.464 586.122 456.464 567.827 456.464 549.53 461.785 534.7 468.349 534.7ZM454.207 534.103 451.116 538.923C448.06 546.419 446.617 556.399 446.617 566.337 446.617 586.214 452.389 606.26 465.291 606.26 478.194 606.26 483.966 586.214 483.966 566.337 483.966 556.402 482.523 546.421 479.467 538.925L476.375 534.103ZM388.441 452.779 386.822 466.447 388.789 461.682C391.964 458.506 396.354 456.544 401.214 456.544 410.433 456.796 425.044 452.779 425.044 452.779 425.044 468.217 423.351 481.96 409.931 489.427 407.36 490.933 404.35 491.749 401.214 491.749 396.825 491.749 392.874 490.18 389.801 487.544 386.477 491.121 384.282 494.133 384.282 495.514L380.519 495.514C380.519 493.38 382.401 490.368 385.223 487.042 385.537 486.666 386.227 485.913 386.227 485.913 391.243 480.265 398.643 474.053 404.224 470.036 404.538 469.785 404.726 469.472 404.726 469.032 404.726 468.342 404.162 467.777 403.472 467.777 403.158 467.777 402.907 467.903 402.657 468.091 398.768 470.852 394.128 474.617 390.177 478.32 388.609 479.826 387.167 481.207 385.85 482.587L384.394 476.969 381.35 482.721C379.305 485.301 376.682 487.56 373.327 489.427 370.756 490.933 367.746 491.749 364.61 491.749 360.221 491.749 356.27 490.18 353.197 487.544 349.874 491.121 347.679 494.133 347.679 495.514L343.916 495.514C343.916 493.38 345.797 490.368 348.619 487.042 348.933 486.666 349.623 485.913 349.623 485.913 354.64 480.265 362.039 474.053 367.621 470.036 367.934 469.785 368.122 469.472 368.122 469.032 368.122 468.342 367.558 467.777 366.868 467.777 366.554 467.777 366.303 467.903 366.053 468.091 362.165 470.852 357.524 474.617 353.574 478.32 352.006 479.826 350.563 481.207 349.246 482.587 347.867 480.077 347.051 477.19 347.051 474.115 347.051 464.389 354.89 456.544 364.61 456.544 373.829 456.796 388.441 452.779 388.441 452.779ZM283.285 428.622C278.665 428.622 274.92 432.37 274.92 436.993L274.92 512.787C275.227 512.78 275.533 512.772 275.84 512.764 334.865 511.552 410.273 511.272 418.053 512.824L465.291 512.824C469.276 512.824 473.072 514.345 476.525 517.096L481.139 522.955 483.291 522.062C484.805 520.548 485.741 518.455 485.741 516.144L485.741 436.993C485.741 432.37 481.996 428.622 477.376 428.622ZM709.904 423.246 703.716 428.686C703.307 428.391 703.045 427.532 702.88 426.355L702.834 425.546 700.24 432.553C697.249 438.358 693.337 440.263 688.236 442.731 679.008 446.545 670.959 453.629 665.154 463.047 664.134 464.591 664.188 466.792 665.28 468.262 666.517 469.824 668.575 469.886 669.876 468.401 670 468.259 670.115 468.105 670.22 467.941 672.541 464.21 675.254 460.855 678.291 457.957 678.657 460.929 678.473 463.961 677.753 466.838 677.258 468.814 678.072 470.922 679.647 471.747 680.026 471.923 680.428 472.014 680.833 472.015 682.283 472.013 683.557 470.859 683.958 469.186 685.287 464.085 685.329 458.627 684.079 453.497 686.073 452.275 688.117 451.172 690.203 450.196 690.315 452.475 690.803 454.705 691.638 456.757 692.411 458.703 694.353 459.529 695.975 458.6 696.184 458.48 696.383 458.333 696.568 458.162 697.78 456.934 698.132 454.867 697.418 453.166 696.397 451.05 696.375 448.446 697.362 446.306 699.778 444.711 701.928 442.593 703.704 440.06L703.704 458.942C699.501 462.271 695.696 466.273 692.394 470.836 691.211 472.459 691.349 474.926 692.702 476.345 694.054 477.765 696.109 477.6 697.291 475.976 699.277 473.297 701.42 470.793 703.707 468.485L703.707 482.706C703.671 484.667 704.811 486.377 706.413 486.764 708.186 487.123 709.865 485.689 710.164 483.561 710.194 483.348 710.209 483.131 710.209 482.914L710.209 471.945C712.225 473.54 714.161 475.276 716.008 477.143 717.385 478.526 719.435 478.306 720.587 476.653 721.731 475.011 721.56 472.568 720.202 471.179 717.161 467.985 713.807 465.248 710.214 463.028L710.207 461.37 710.207 443.969C711.86 445.949 713.721 447.663 715.742 449.065 716.226 449.62 718.161 452.245 717.257 457.955 716.862 460.159 717.998 462.34 719.821 462.878 720.011 462.919 720.204 462.939 720.397 462.94 721.938 462.936 723.266 461.636 723.578 459.824 723.958 457.701 724.076 455.523 723.929 453.358 725.122 453.844 726.319 454.299 727.509 454.751L731.213 456.191C730.392 459.567 730.296 465.262 734.877 472.903 735.927 474.654 737.961 475.051 739.419 473.79 739.584 473.648 739.738 473.487 739.878 473.31 740.944 471.871 741.02 469.732 740.062 468.188 737.439 463.758 737.121 460.824 737.276 459.202 740.527 461.178 743.389 463.965 745.671 467.376 746.799 469.053 748.846 469.316 750.243 467.962 750.385 467.824 750.518 467.672 750.639 467.507 751.696 465.989 751.679 463.774 750.6 462.279 744.209 452.894 736.379 449.926 729.466 447.302 722.042 444.496 715.567 442.013 711.052 432.31 710.507 431.151 710.216 429.844 710.207 428.513L710.207 423.311C710.106 423.289 710.006 423.267 709.904 423.246ZM553.152 391.131 554.993 391.131C554.678 391.699 554.363 392.279 554.072 392.872 553.782 392.279 553.467 391.699 553.152 391.131ZM552.295 386.034 555.737 386.034C556.433 386.034 556.997 386.599 556.997 387.296 556.995 387.468 556.965 387.638 556.909 387.801L556.619 388.23C556.396 388.458 556.094 388.594 555.774 388.608 555.207 388.621 554.64 388.633 554.072 388.646L552.257 388.646C551.962 388.62 551.685 388.49 551.475 388.28 551.362 388.091 551.235 387.914 551.109 387.725 551.058 387.588 551.032 387.442 551.034 387.296 551.034 386.599 551.598 386.034 552.295 386.034ZM552.254 381.074C552.28 381.074 552.307 381.074 552.333 381.076L555.774 381.076C556.471 381.076 557.035 381.641 557.035 382.338 557.035 383.034 556.471 383.599 555.774 383.599L554.072 383.599 552.257 383.599C551.561 383.599 550.996 383.034 550.996 382.338 550.995 381.641 551.558 381.075 552.254 381.074ZM563.276 380.18C562.306 381.139 561.372 382.136 560.477 383.183 559.781 383.221 559.185 382.687 559.147 381.991 559.109 381.294 559.642 380.698 560.339 380.66 561.347 380.546 562.331 380.369 563.276 380.18ZM544.881 380.18C545.814 380.369 546.785 380.533 547.781 380.672 548.47 380.764 548.955 381.396 548.865 382.085 548.78 382.689 548.276 383.146 547.667 383.17 546.785 382.136 545.852 381.126 544.881 380.18ZM552.333 376.029 555.774 376.029C556.471 376.005 557.055 376.55 557.079 377.247 557.104 377.944 556.559 378.528 555.863 378.553L554.072 378.553 552.257 378.553C551.561 378.532 551.013 377.95 551.034 377.253 551.055 376.556 551.636 376.008 552.333 376.029ZM544.402 375.058C545.486 375.285 546.621 375.487 547.781 375.638 548.477 375.684 549.005 376.285 548.96 376.982 548.915 377.679 548.313 378.207 547.617 378.162L547.453 378.162C546.192 377.997 545.02 377.796 543.885 377.543 543.203 377.4 542.767 376.731 542.91 376.049 542.911 376.043 542.913 376.036 542.914 376.029 543.059 375.351 543.724 374.918 544.402 375.058ZM563.742 375.045C564.439 374.899 565.122 375.345 565.268 376.042 565.415 376.739 564.969 377.422 564.272 377.568 563.138 377.808 561.927 378.023 560.704 378.174L560.54 378.174C559.844 378.219 559.243 377.691 559.198 376.994 559.152 376.298 559.68 375.696 560.376 375.651L560.376 375.625C561.536 375.474 562.671 375.285 563.742 375.045ZM511.958 372.689C515.113 372.314 518.555 372.711 521.997 373.506 539.46 377.291 551.752 391.258 554.072 410.599 556.405 391.333 568.723 377.291 586.148 373.506 589.589 372.711 593.031 372.314 596.187 372.689 599.341 373.064 602.21 374.213 604.505 376.509 604.505 376.509 584.609 377.14 584.609 400.619 584.609 414.207 575.784 423.19 566.252 424.729 565.132 424.926 563.997 425.023 562.86 425.019L561.99 425.019C561.562 429.395 557.67 432.595 553.297 432.167 549.516 431.797 546.524 428.803 546.154 425.019L545.247 425.019C544.11 425.023 542.975 424.926 541.855 424.729 532.26 423.19 523.498 414.207 523.498 400.619 523.535 377.14 503.64 376.509 503.64 376.509 505.934 374.213 508.803 373.064 511.958 372.689ZM552.254 370.981C552.28 370.981 552.307 370.981 552.333 370.983L555.774 370.983C556.471 370.958 557.055 371.503 557.079 372.2 557.104 372.897 556.559 373.482 555.863 373.506L554.072 373.506 552.257 373.506C551.561 373.506 550.996 372.941 550.996 372.244 550.995 371.548 551.558 370.982 552.254 370.981ZM544.402 370.011C545.486 370.238 546.621 370.44 547.781 370.592 548.477 370.637 549.005 371.238 548.96 371.935 548.915 372.632 548.313 373.16 547.617 373.115L547.453 373.115C546.192 372.951 545.02 372.749 543.885 372.497 543.203 372.354 542.767 371.685 542.91 371.003 542.911 370.996 542.913 370.989 542.914 370.983 543.059 370.305 543.724 369.871 544.402 370.011ZM563.742 369.999C564.439 369.852 565.122 370.298 565.268 370.995 565.415 371.692 564.969 372.376 564.272 372.522 563.138 372.762 561.927 372.976 560.704 373.127L560.54 373.127C559.844 373.173 559.243 372.645 559.198 371.948 559.152 371.251 559.68 370.649 560.376 370.604L560.376 370.579C561.536 370.428 562.671 370.238 563.742 369.999ZM552.333 365.936 555.774 365.936C556.471 365.912 557.055 366.457 557.079 367.154 557.104 367.85 556.559 368.435 555.863 368.459L554.072 368.459 552.257 368.459C551.561 368.438 551.013 367.857 551.034 367.16 551.055 366.463 551.636 365.915 552.333 365.936ZM544.402 364.965C545.486 365.192 546.621 365.394 547.781 365.545 548.477 365.59 549.005 366.192 548.96 366.889 548.915 367.585 548.313 368.114 547.617 368.068L547.453 368.068C546.192 367.904 545.02 367.702 543.885 367.45 543.203 367.307 542.767 366.638 542.91 365.956 542.911 365.95 542.913 365.943 542.914 365.936 543.059 365.258 543.724 364.825 544.402 364.965ZM563.742 364.952C564.439 364.806 565.122 365.252 565.268 365.949 565.415 366.645 564.969 367.329 564.272 367.475 563.138 367.715 561.927 367.93 560.704 368.081L560.54 368.081C559.844 368.126 559.243 367.598 559.198 366.901 559.152 366.204 559.68 365.603 560.376 365.558L560.376 365.532C561.536 365.381 562.671 365.192 563.742 364.952ZM342.825 361.38 338.474 419.033 414.434 419.033 410.083 361.38C387.664 361.38 365.244 361.38 342.825 361.38ZM552.333 360.89 555.774 360.89C556.471 360.865 557.055 361.41 557.079 362.107 557.104 362.804 556.559 363.389 555.863 363.413L554.072 363.413 552.257 363.413C551.561 363.392 551.013 362.81 551.034 362.113 551.055 361.416 551.636 360.869 552.333 360.89ZM544.402 359.918C545.486 360.145 546.621 360.347 547.781 360.499 548.477 360.544 549.005 361.145 548.96 361.842 548.915 362.539 548.313 363.067 547.617 363.022L547.453 363.022C546.192 362.858 545.02 362.656 543.885 362.404 543.203 362.261 542.767 361.592 542.91 360.91 542.911 360.903 542.913 360.896 542.914 360.89 543.059 360.212 543.724 359.778 544.402 359.918ZM563.742 359.905C564.439 359.759 565.122 360.205 565.268 360.902 565.415 361.599 564.969 362.282 564.272 362.429 563.138 362.668 561.927 362.883 560.704 363.034L560.54 363.034C559.844 363.08 559.243 362.551 559.198 361.855 559.152 361.158 559.68 360.556 560.376 360.511L560.376 360.486C561.536 360.334 562.671 360.145 563.742 359.905ZM552.254 355.841C552.28 355.841 552.307 355.841 552.333 355.843L555.774 355.843C556.471 355.843 557.035 356.408 557.035 357.104 557.035 357.801 556.471 358.366 555.774 358.366L554.072 358.366 552.257 358.366C551.561 358.366 550.996 357.801 550.996 357.104 550.995 356.408 551.558 355.842 552.254 355.841ZM544.402 354.872C545.486 355.099 546.621 355.3 547.781 355.452 548.477 355.497 549.005 356.099 548.96 356.796 548.915 357.492 548.313 358.021 547.617 357.975L547.453 357.975C546.192 357.811 545.02 357.609 543.885 357.357 543.203 357.214 542.767 356.545 542.91 355.863 542.911 355.857 542.913 355.85 542.914 355.843 543.059 355.165 543.724 354.731 544.402 354.872ZM563.742 354.859C564.439 354.713 565.122 355.159 565.268 355.856 565.415 356.552 564.969 357.236 564.272 357.382 563.138 357.622 561.927 357.836 560.704 357.988L560.54 357.988C559.844 358.033 559.243 357.505 559.198 356.808 559.152 356.111 559.68 355.51 560.376 355.464L560.376 355.439C561.536 355.288 562.671 355.099 563.742 354.859ZM552.333 350.796 555.774 350.796C556.471 350.772 557.055 351.317 557.079 352.014 557.104 352.711 556.559 353.295 555.863 353.319L554.072 353.319 552.257 353.319C551.561 353.298 551.013 352.717 551.034 352.02 551.055 351.323 551.636 350.775 552.333 350.796ZM552.254 345.747C552.28 345.747 552.307 345.748 552.333 345.75L555.774 345.75C556.471 345.725 557.055 346.27 557.079 346.967 557.104 347.664 556.559 348.249 555.863 348.273L554.072 348.273 552.257 348.273C551.561 348.273 550.996 347.708 550.996 347.011 550.995 346.315 551.558 345.749 552.254 345.747ZM552.256 340.703C552.269 340.703 552.282 340.703 552.295 340.703L555.737 340.703C556.433 340.703 556.997 341.268 556.997 341.965 556.997 342.662 556.433 343.226 555.737 343.226L554.072 343.226 552.257 343.226C551.561 343.226 550.996 342.662 550.996 341.965 550.996 341.268 551.56 340.703 552.256 340.703ZM554.072 333.118C556.551 333.118 559.029 334.027 560.969 335.846 568.445 343.315 573.741 356.373 575.796 371.626 573.07 372.872 570.477 374.39 568.055 376.156 567.705 376.043 567.429 375.772 567.311 375.424 567.072 374.776 567.398 374.056 568.042 373.809 568.996 373.456 569.923 373.034 570.816 372.547 570.728 371.853 570.614 371.172 570.513 370.478 570.009 370.718 569.479 370.932 568.925 371.147 568.783 371.198 568.634 371.224 568.483 371.222 567.787 371.21 567.232 370.636 567.244 369.939 567.254 369.429 567.568 368.975 568.042 368.788 568.735 368.526 569.412 368.227 570.072 367.892 569.946 367.185 569.795 366.491 569.656 365.797L568.925 366.1C568.783 366.152 568.634 366.177 568.483 366.176 567.787 366.164 567.232 365.59 567.244 364.893 567.254 364.383 567.568 363.928 568.042 363.741 568.408 363.602 568.748 363.451 569.089 363.299 568.912 362.568 568.723 361.836 568.534 361.129 568.011 361.126 567.544 360.8 567.362 360.309 567.16 359.734 567.399 359.096 567.929 358.795 567.165 356.296 566.256 353.845 565.205 351.453 565.073 351.882 564.723 352.209 564.285 352.31 563.15 352.55 561.94 352.765 560.717 352.916L560.553 352.916C559.857 352.961 559.256 352.433 559.21 351.736 559.165 351.039 559.693 350.438 560.389 350.393 561.549 350.241 562.684 350.052 563.755 349.812 564.016 349.764 564.285 349.799 564.525 349.913 564.121 349.068 563.705 348.235 563.264 347.39 562.432 347.541 561.587 347.68 560.742 347.794L560.578 347.794C559.882 347.839 559.281 347.311 559.235 346.614 559.19 345.917 559.718 345.316 560.414 345.27 560.931 345.207 561.436 345.119 561.94 345.043 561.423 344.211 560.881 343.441 560.326 342.684 559.723 342.628 559.279 342.094 559.334 341.49 559.336 341.468 559.339 341.445 559.342 341.422 558.738 340.69 558.082 339.984 557.489 339.341 555.581 337.652 552.715 337.652 550.807 339.341 550.164 339.984 549.546 340.69 548.928 341.435 548.934 341.498 548.934 341.561 548.928 341.624 548.852 342.141 548.466 342.557 547.958 342.671 547.403 343.416 546.86 344.198 546.343 345.031L547.769 345.346C548.465 345.391 548.992 345.993 548.947 346.69 548.902 347.386 548.301 347.915 547.605 347.869L547.441 347.869C546.583 347.756 545.739 347.617 544.919 347.466 544.477 348.248 544.062 349.081 543.658 349.926 543.885 349.815 544.143 349.784 544.39 349.838 545.474 350.065 546.609 350.266 547.769 350.418 548.465 350.463 548.992 351.065 548.947 351.761 548.902 352.458 548.301 352.987 547.605 352.941L547.441 352.941C546.18 352.777 545.007 352.575 543.873 352.323 543.449 352.224 543.105 351.915 542.964 351.503 541.903 353.869 540.981 356.296 540.203 358.77 540.724 359.079 540.951 359.714 540.745 360.284 540.562 360.774 540.096 361.101 539.573 361.104 539.371 361.823 539.195 362.555 539.018 363.287 539.359 363.425 539.674 363.577 540.04 363.716 540.694 363.953 541.032 364.677 540.795 365.332 540.612 365.835 540.133 366.168 539.598 366.163 539.447 366.16 539.297 366.131 539.157 366.075 538.905 365.987 538.69 365.873 538.451 365.785 538.3 366.483 538.161 367.177 538.035 367.866 538.686 368.202 539.355 368.501 540.04 368.762 540.694 369 541.032 369.724 540.795 370.379 540.612 370.881 540.133 371.215 539.598 371.21 539.447 371.207 539.297 371.177 539.157 371.121 538.602 370.92 538.085 370.693 537.594 370.465 537.48 371.147 537.379 371.841 537.291 372.535 538.174 373.024 539.093 373.446 540.04 373.796 540.687 374.052 541.005 374.785 540.749 375.433 540.62 375.758 540.364 376.015 540.04 376.143 537.616 374.376 535.018 372.862 532.285 371.626 534.404 356.373 539.699 343.315 547.175 335.846 549.115 334.027 551.594 333.118 554.072 333.118ZM345.885 320.831 343.882 347.373 409.027 347.373 407.024 320.831ZM559.061 314.233C544.295 314.087 527.873 317.594 508.968 326.944 494.291 363.406 498.241 418.274 499.862 470.842L499.92 513.991 509.398 501.211C542.486 459.078 574.47 437.815 604.258 427.3L615.567 424.188 615.419 412.426C613.963 377.977 609.824 344.498 599.22 323.437 586.938 318.178 573.827 314.379 559.061 314.233ZM349.127 277.856 346.941 306.824C366.616 306.824 386.291 306.824 405.967 306.824L403.781 277.856ZM377.067 214.453C368.808 214.559 362.287 215.945 357.152 217.921L353.514 219.722 350.184 263.85 402.724 263.85 399.288 218.317 395.13 216.414C391.024 215.108 385.326 214.348 377.067 214.453ZM485.781 100.28C486.443 100.4 487.1 100.548 487.751 100.72 501.307 104.326 509.377 118.245 505.774 131.811 503.396 142.093 495.76 150.351 485.699 153.518 485.732 155.375 485.54 157.229 485.128 159.04 482.442 171.234 470.84 179.314 458.48 177.598 453.667 176.791 449.312 174.262 446.225 170.481 440.214 175.539 432.299 177.725 424.546 176.469L409.284 173.838C402.802 172.799 396.192 174.677 391.224 178.972L389.522 180.3C386.06 182.827 383.923 186.506 383.264 190.433L383.377 195.41C385.85 195.466 388.323 195.522 390.796 195.578 402.418 196.173 408.075 197.776 410.963 201.81L412.874 209.202C412.92 209.198 412.968 209.194 413.015 209.191L413.074 209.978 413.995 213.54C414.406 218.811 414.534 225.583 415.327 234.278L414.878 233.885 428.849 419.033 484.399 419.033 489.706 421.233 489.58 417.397C488.933 379.915 490.663 344.653 501.901 318.269 523.615 308.121 542.476 304.315 559.436 304.474 576.395 304.632 591.454 308.755 605.561 314.464 617.74 337.322 622.494 373.66 624.166 411.05L624.309 421.783 626.172 421.27C640.483 418.383 654.178 417.55 667.12 417.505 673.591 417.483 680.133 417.568 686.665 417.952L702.668 419.793 702.7 417.436 702.784 413.797C702.784 410.293 703.728 409.745 703.716 407.664 703.676 402.457 703.244 397.26 702.423 392.119 701.427 386.559 700.439 380.838 699.709 374.939 697.889 374.12 696.145 373.277 694.491 372.444 693.399 371.891 692.322 371.36 691.241 370.846 685.313 380.635 672.67 383.916 662.735 378.243 646.524 369.303 644.511 352.746 644.511 334.172 644.511 334.172 662.078 339.039 673.2 338.705 674.427 338.697 675.651 338.797 676.86 339.002 688.3 340.95 695.997 351.809 694.051 363.257 695.695 364.015 697.292 364.806 698.84 365.594 697.755 351.059 700.109 336.472 705.71 323.017 704.855 321.687 703.889 320.432 702.822 319.264 699.478 321.744 694.984 322.008 691.373 319.938 683.267 315.466 682.26 307.189 682.26 297.902 686.938 299.209 691.751 299.97 696.604 300.17L696.612 300.17C702.45 300.174 707.179 304.914 707.174 310.755 707.157 311.186 707.113 311.617 707.042 312.043 707.975 312.959 708.819 313.877 709.607 314.806 711.6 311.058 713.798 307.423 716.191 303.918 714.024 300.608 713.895 296.361 715.857 292.925 720.324 284.813 728.598 283.806 737.879 283.806 736.573 288.485 735.812 293.299 735.613 298.153 735.615 298.924 735.534 299.693 735.369 300.446 734.123 306.132 728.506 309.732 722.824 308.485 719.02 314.014 715.779 319.91 713.15 326.086 715.18 325.7 717.243 325.517 719.309 325.542 722.98 321.506 729.121 320.941 733.466 324.239 737.447 327.022 741.737 329.335 746.25 331.131 740.618 338.52 734.806 344.496 725.65 343.138 720.8 342.496 717.034 338.59 716.565 333.717 714.284 333.965 712.044 334.493 709.892 335.29 705.052 352.061 706.483 367.373 708.896 382.209 710.03 381.348 711.226 380.573 712.475 379.89 712.473 379.757 712.456 379.629 712.456 379.495 712.457 367.813 721.921 358.343 733.595 358.341 744.717 358.675 762.284 353.809 762.284 353.809 762.284 372.378 760.271 388.939 744.061 397.88 743.494 398.203 742.913 398.5 742.318 398.77 731.697 403.589 719.183 398.879 714.367 388.251 712.834 389.199 711.539 390.488 710.582 392.017 711.389 396.794 711.727 397.876 711.576 411.812L711.576 417.053C711.586 418.394 711.938 419.711 712.598 420.878L711.661 421.702 725.103 425.382C752.114 435.655 775.881 459.001 789.704 511.486L792.821 525.801 795 542.436 681.13 542.436 683.817 543.557C686.547 545.442 688.961 548.063 690.813 551.688 675.513 537.928 660.709 543.031 612.746 545.219 582.991 544.326 525.279 544.726 497.401 545.638L491.83 545.873 491.885 546.027 492.409 550.921 636.927 551.96 656.939 551.96C656.395 553.276 655.909 554.656 655.48 556.1L636.928 556.1C629.821 554.315 510.993 554.706 493.643 556.712L493.043 556.835 494.152 567.187 493.647 571.9 624.682 574.729 653.619 574.729C653.725 576.137 653.88 577.523 654.092 578.869 651.378 579.025 649.669 579.23 648.211 579.447L647.704 579.522 625.5 579.522 493.107 576.942 492.492 582.676 492.745 582.681 493.425 596.736C496.613 600.543 631.98 605.159 640.654 603.716L673.563 603.716 673.563 603.712C684.669 603.712 693.67 588.883 693.67 570.591 693.67 566.017 693.108 561.661 692.09 557.698L690.241 552.084 691.415 553.525C695.216 559.18 697.566 566.991 697.566 575.619 697.566 592.875 688.163 606.864 676.563 606.864L676.563 606.867 642.184 606.867C633.124 608.228 491.716 603.874 488.385 600.283L488.285 598.404 485.699 605.627C480.477 615.464 473.261 621.549 465.291 621.549L465.291 621.556 418.053 621.556C405.603 623.924 211.301 616.348 206.724 610.1L205.42 579.283C205.419 579.212 351.943 583.604 390.597 583.853 429.251 584.101 421.76 581.8 437.342 580.774 437.039 578.565 436.816 576.291 436.663 573.979L395.127 573.979 206.371 569.32C199.791 556.153 205.629 559.742 204.09 545.101 208.486 541.217 401.824 540.279 412.705 543.403L439.335 543.403C439.95 541.033 440.648 538.768 441.429 536.608L412.704 536.608C343.464 536.039 274.224 537.373 204.985 534.9 204.985 534.753 197.977 521.3 205.436 515.755 209.084 514.953 223.419 514.214 243.063 513.595L265.338 513.03 265.338 429.966C265.338 423.928 270.229 419.033 276.263 419.033L324.059 419.033 339.194 218.458 339.338 213.068 339.702 211.728 339.762 210.937C339.812 210.941 339.864 210.945 339.914 210.949L342.458 201.602C345.525 197.62 351.493 195.989 363.26 195.467L366.859 195.415 367.269 183.276C369.243 174.672 374.488 166.819 382.541 161.747L384.924 160.087C391.714 155.421 400.047 153.569 408.173 154.919 411.998 155.529 415.649 153.094 416.558 149.326L417.031 147.075C420.058 134.521 432.223 126.408 444.967 128.442 448.791 129.004 452.422 126.582 453.375 122.834 456.645 108.01 470.753 98.1905 485.781 100.28Z" fill="#00196F" fill-rule="evenodd"/><rect x="177" y="43" width="650" height="650" stroke="#00196F" stroke-width="10.3125" stroke-linejoin="round" stroke-miterlimit="10" fill="none"/></g></svg>