<svg width="662" height="820" xmlns="http://www.w3.org/2000/svg" xmlns:xlink="http://www.w3.org/1999/xlink" xml:space="preserve" overflow="hidden"><g transform="translate(-161 -869)"><rect x="166" y="874" width="650" height="649" stroke="#00196F" stroke-width="10.3125" stroke-linejoin="round" stroke-miterlimit="10" fill="none"/><path d="M619.617 1306.68 619.617 1320.21 635.534 1320.21 635.534 1306.68ZM605.45 1287.31 605.45 1292.68 614.722 1292.68 614.722 1287.31ZM442.248 1259.83 442.248 1269.58 447.365 1269.58 447.365 1259.83ZM423.488 1259.83 423.488 1269.58 428.605 1269.58 428.605 1259.83ZM461.648 1259.59 461.648 1269.33 466.764 1269.33 466.764 1259.59ZM481.048 1259.34 481.048 1269.08 486.164 1269.08 486.164 1259.34ZM500.447 1259.09 500.447 1268.83 505.563 1268.83 505.563 1259.09ZM579.321 1258.84 579.321 1268.58 584.437 1268.58 584.437 1258.84ZM519.847 1258.84 519.847 1268.58 524.963 1268.58 524.963 1258.84ZM444.172 1234.08 444.172 1252.49 459.521 1252.49 459.521 1234.08ZM225.945 1231.21 225.945 1257.2 241.294 1257.2 241.294 1231.21ZM521.858 1228.4 521.858 1252.49 537.207 1252.49 537.207 1228.4ZM444.172 1184.64 444.172 1210.63 459.521 1210.63 459.521 1184.64ZM225.945 1181.78 225.945 1207.76 241.294 1207.76 241.294 1181.78ZM521.858 1178.96 521.858 1204.95 537.207 1204.95 537.207 1178.96ZM444.172 1138.5 444.172 1160.23 459.521 1160.23 459.521 1138.5ZM225.945 1135.63 225.945 1157.36 241.294 1157.36 241.294 1135.63ZM521.858 1132.81 521.858 1154.54 537.207 1154.54 537.207 1132.81ZM444.172 1092.35 444.172 1114.08 459.521 1114.08 459.521 1092.35ZM225.945 1089.48 225.945 1111.21 241.294 1111.21 241.294 1089.48ZM521.858 1086.66 521.858 1108.39 537.207 1108.39 537.207 1086.66ZM525.89 1056 533.175 1056C536.641 1056 539.45 1058.95 539.45 1062.59L539.45 1252.49 606.109 1252.49 606.109 1268.25 620.185 1268.25 620.185 1299.44 638.996 1299.44 638.996 1205.88C639.141 1183.11 679.264 1170.94 719.333 1170.55 734.359 1170.4 749.377 1171.91 762.277 1175.14L764.155 1175.73 764.155 1142.03C764.155 1139.89 765.809 1138.15 767.85 1138.15L769.84 1138.15C771.88 1138.15 773.535 1139.89 773.535 1142.03L773.535 1178.67 774.393 1178.94C789.397 1184.78 799.384 1193.71 799.35 1205.88L799.35 1319.8 811.249 1319.8 811.249 1358.03 823 1358.03 823 1368 174 1368 174 1358.03 181.732 1358.03 181.732 1314.53 218.684 1314.53 218.684 1346.77 223.702 1334.87 223.702 1065.41C223.702 1061.77 226.511 1058.81 229.977 1058.81L237.262 1058.81C240.727 1058.81 243.537 1061.77 243.537 1065.41L243.537 1283.56 248.821 1268.49C267.686 1209.69 274.713 1151.65 260.648 1066.18 272.971 1060.54 308.267 1056.12 346.242 1057.04 369.027 1057.59 392.777 1060.06 413.107 1065.36 399.943 1106.67 403.871 1174.56 417.402 1247L418.533 1252.49 441.929 1252.49 441.929 1068.28C441.929 1064.63 444.738 1061.68 448.204 1061.68L455.488 1061.68C458.954 1061.68 461.764 1064.63 461.764 1068.28L461.764 1252.49 519.615 1252.49 519.615 1062.59C519.615 1058.95 522.425 1056 525.89 1056Z" fill="#00196F" fill-rule="evenodd"/><text fill="#1255C8" font-family="Arial,Arial_MSFontService,sans-serif" font-weight="400" font-size="83" transform="matrix(1 0 0 1 399.607 1620)">CCG</text></g></svg>