<svg width="664" height="824" xmlns="http://www.w3.org/2000/svg" xmlns:xlink="http://www.w3.org/1999/xlink" xml:space="preserve" overflow="hidden"><g transform="translate(-1793 -38)"><text fill="#1255C8" font-family="Arial,Arial_MSFontService,sans-serif" font-weight="400" font-size="83" transform="matrix(1 0 0 1 1862.92 793)">Cogénération</text><path d="M1967.18 441.553 1906.47 543.755 1943.27 544.496 1927.32 611.89 1986.81 510.429 1950.01 512.65ZM2009.1 422.9 2009.75 422.9 2009.75 425.069 2009.1 425.069ZM2128.16 417.158 2128.16 444.715 2150.72 444.715 2150.72 417.158ZM1904.31 388.744 1904.31 390.913 1989.26 390.913 1989.26 388.744ZM2312.69 367.437 2312.76 367.449 2312.63 367.495ZM2268.94 367.437 2269.01 367.449 2268.88 367.495ZM2225.19 367.437 2225.26 367.449 2225.13 367.495ZM2128.16 361.282 2128.16 388.839 2150.72 388.839 2150.72 361.282ZM2315.73 356.654 2303.69 370.622C2301.66 374.257 2305.57 373.727 2306.59 373.563L2310.49 369.647 2308.38 376.831C2305.52 384.704 2302.24 391.251 2302.38 408.411 2304.02 420.697 2314.76 426.047 2323.5 443.208 2323.99 457.616 2313.33 467.324 2304.76 474.92L2307.66 478.057C2312.17 473.328 2326.85 465.263 2327.04 443.135 2322.26 426.226 2309.45 420.419 2306.56 406.597 2305.85 393.033 2309.77 384.707 2313.11 375.727L2315.56 367.919 2316.34 368.049 2320.61 373.808C2322.14 374.829 2323.66 374.748 2325.18 373.196ZM2271.98 356.654 2259.94 370.622C2257.91 374.257 2261.82 373.727 2262.84 373.563L2266.74 369.647 2264.63 376.831C2261.77 384.704 2258.49 391.251 2258.63 408.411 2260.27 420.697 2271.01 426.047 2279.75 443.208 2280.24 457.616 2269.58 467.324 2261.01 474.92L2263.91 478.057C2268.42 473.328 2283.1 465.263 2283.29 443.135 2278.51 426.226 2265.7 420.419 2262.81 406.597 2262.1 393.033 2266.02 384.707 2269.36 375.727L2271.81 367.919 2272.59 368.049 2276.86 373.808C2278.39 374.829 2279.91 374.748 2281.43 373.196ZM2228.23 356.654 2216.19 370.622C2214.16 374.257 2218.07 373.727 2219.09 373.563L2222.99 369.647 2220.88 376.831C2218.02 384.704 2214.74 391.251 2214.88 408.411 2216.52 420.697 2227.26 426.047 2236 443.208 2236.49 457.616 2225.83 467.324 2217.26 474.92L2220.16 478.057C2224.67 473.328 2239.35 465.263 2239.54 443.135 2234.75 426.226 2221.95 420.419 2219.06 406.597 2218.35 393.033 2222.27 384.707 2225.61 375.727L2228.06 367.919 2228.84 368.049 2233.11 373.808C2234.63 374.829 2236.16 374.748 2237.68 373.196ZM2128.16 305.406 2128.16 332.963 2150.72 332.963 2150.72 305.406ZM1897.72 236.371 1897.72 322.269 1903.83 322.269 1903.83 236.371ZM1904.38 236.033 1904.38 238.203 1989.33 238.203 1989.33 236.033ZM1904.38 226.465 1904.38 228.635 1989.33 228.635 1989.33 226.465ZM1989.44 226.121 1989.44 229.138 1991.42 229.138 1991.42 226.121ZM1897.72 226.121 1897.72 229.138 1903.83 229.138 1903.83 226.121ZM1904.31 216.224 1904.31 218.394 1989.26 218.394 1989.26 216.224ZM1903.83 196.247 1989.44 196.247 1989.44 218.888 2003.8 218.888 2003.8 226.121 1998 226.121 1998 229.138 2003.8 229.138 2003.8 236.371 1989.44 236.371 1989.44 388.858 2008.85 422.459 2009.1 422.459 2009.1 422.878 2009.1 422.9 1884.83 422.9 1884.83 425.069 2009.1 425.069 2009.1 498.686 2125.11 498.686 2125.11 283.695C2125.11 276.085 2130.72 269.916 2137.64 269.916L2141.86 269.916C2148.78 269.916 2154.38 276.085 2154.38 283.695L2154.38 498.686 2186.5 498.686 2190.36 478.264C2198.69 428.369 2196.37 392.539 2187.12 333.853 2215.12 326.625 2242.25 322.651 2269.9 322.504 2297.55 322.357 2325.72 326.037 2355.81 334.118 2345.06 407.771 2344.43 434.539 2353.93 479.036L2358.46 498.686 2393.3 498.686 2393.3 500.333 2394 500.352 2393.3 526.498 2393.3 638 2009.1 638 2007.38 638 1884.18 638 1884.18 422.878 1884.18 422.459 1884.42 422.459 1903.83 388.858 1903.83 329.502 1897.72 329.502 1897.72 377.928 1889.37 377.928 1889.37 329.502 1879 329.502 1879 322.269 1889.37 322.269 1889.37 236.371 1885.29 236.371 1885.29 229.138 1889.37 229.138 1889.37 226.121 1885.29 226.121 1885.29 218.888 1889.37 218.888 1889.37 213.575 1897.72 213.575 1897.72 218.888 1903.83 218.888ZM1897.13 185.278 1995.75 185.278 1995.75 194.464 1897.13 194.464ZM2115.9 111.008C2125.48 110.8 2135.12 114.421 2142.8 121.916 2143.45 122.612 2144.08 123.337 2144.69 124.087 2157.25 139.742 2155.89 163.631 2141.66 177.447 2131.28 188.21 2116.49 192.126 2102.78 187.741 2101.43 190.066 2099.82 192.203 2098 194.104 2085.83 206.979 2066.71 207.402 2054.08 195.075 2049.27 190.104 2046.27 183.378 2045.63 176.15 2035.06 177.448 2024.51 173.619 2016.73 165.664L2001.52 149.809C1995 143.172 1986.15 140.04 1977.34 141.254L1974.42 141.493C1962.84 142.033 1953.77 152.649 1953.99 165.402L1953.99 169.171 1932.53 169.171 1932.53 162.633C1933.3 134.321 1954.74 112.027 1980.48 112.767L1984.41 112.68C1995.55 112.51 2006.32 117.096 2014.46 125.475 2018.3 129.388 2024.24 129.388 2028.09 125.475L2030.31 123.079C2043.13 110.041 2062.91 110.041 2075.73 123.079 2079.62 126.932 2085.52 126.932 2089.4 123.079 2096.8 115.256 2106.31 111.217 2115.9 111.008Z" fill="#00196F" fill-rule="evenodd"/><rect x="1802" y="43" width="650" height="650" stroke="#00196F" stroke-width="10.3125" stroke-linejoin="round" stroke-miterlimit="10" fill="none"/></g></svg>