<svg width="666" height="843" xmlns="http://www.w3.org/2000/svg" xmlns:xlink="http://www.w3.org/1999/xlink" xml:space="preserve" overflow="hidden"><g transform="translate(-1797 -863)"><text fill="#1255C8" font-family="Calibri,Calibri_MSFontService,sans-serif" font-weight="400" font-size="92" transform="matrix(1 0 0 1 1907.53 1627)">Gaz de mine </text><rect x="1802" y="868" width="650" height="649" stroke="#00196F" stroke-width="10.3125" stroke-linejoin="round" stroke-miterlimit="10" fill="none"/><g><g><g><path d="M2206.62 1365.8 2206.62 1317.79 2189.21 1317.79 2189.21 1199.95 2200.41 1195.43C2204.07 1193.95 2206.29 1190.19 2205.8 1186.26L2199.16 1132.6C2198.6 1128.06 2196.86 1123.74 2194.11 1120.08L2161.63 1076.87C2159.25 1073.7 2155.05 1072.54 2151.38 1074.02L2117.15 1087.84C2112.7 1089.65 2110.55 1094.73 2112.35 1099.19L2129.33 1141.24 1953.48 1214.08 1953.48 1204.31 1883.65 1204.31 1883.65 1274.15 1892.38 1274.15 1892.38 1365.8 1857.46 1365.8 1857.46 1391.99 2241.54 1391.99 2241.54 1365.8ZM2060.41 1198.13 2139.09 1165.55 2154.8 1204.43C2156.61 1208.88 2161.69 1211.03 2166.15 1209.23L2171.75 1206.97 2171.75 1317.79 2154.25 1317.79 2154.25 1365.8 2079.18 1365.8ZM2048.91 1330.89 2016.24 1330.89 2018.19 1313.43 2046.96 1313.43ZM2020.14 1295.97 2022.12 1278.31 2043.03 1278.31 2045 1295.97ZM2041.09 1260.86 2024.07 1260.86 2026 1243.59 2039.15 1243.59ZM2027.95 1226.14 2029.65 1210.86 2035.23 1208.55 2037.2 1226.14ZM2014.29 1348.34 2050.86 1348.34 2052.81 1365.8 2012.34 1365.8ZM2002.02 1222.32 1985.99 1365.8 1944.75 1365.8 1944.75 1274.15 1953.48 1274.15 1953.48 1242.43ZM1909.83 1274.15 1927.29 1274.15 1927.29 1365.8 1909.83 1365.8Z" fill="#00196F"/></g></g></g><path d="M2.68235 66.5638C2.6475 66.6744 2.78825 67.5845 3.06744 69.0759L3.239 69.9224 3.35241 68.8485C2.92823 67.1421 2.7174 66.4531 2.68235 66.5638ZM62.5721 0C14.2018 16.3018 21.9232 109.241 14.9263 111.564 11.9862 108.508 6.87426 87.2536 4.2826 75.0753L3.239 69.9224 0.366992 97.0907C-2.9808 159.144 17.393 193.996 27.7915 195.695L29.9768 196 30.4132 195.381 32.308 193.487 29.307 192.281C20.1749 185.503 15.7316 171.067 19.1708 148.321 30.5133 119.105 42.9927 129.051 37.2653 74.4549 57.8501 114.445 78.8515 146.48 65.5315 180.014L58.2065 193.432 58.4574 193.799 65.229 191.381C79.9879 183.787 92.7687 166.292 90.7985 127.654 86.8579 82.5583 39.1942 95.6941 62.5721 0Z" stroke="#00196F" stroke-width="6.875" stroke-linejoin="round" stroke-miterlimit="10" fill="#00196F" fill-rule="evenodd" transform="matrix(-1 0 0 1 1970.5 974.5)"/><path d="M2214 1268.81C2214 1265.6 2216.6 1263 2219.81 1263L2409.19 1263C2412.4 1263 2415 1265.6 2415 1268.81L2415 1270.19C2415 1273.4 2412.4 1276 2409.19 1276L2219.81 1276C2216.6 1276 2214 1273.4 2214 1270.19Z" fill="#00196F" fill-rule="evenodd"/><path d="M2224.79 1361 2239 1361 2237.06 1364.44 2236.23 1367 2224.79 1367C2223.25 1367 2222 1365.8 2222 1364.32L2222 1363.68C2222 1362.2 2223.25 1361 2224.79 1361Z" fill="#00196F" fill-rule="evenodd"/><path d="M2290 1361 2337 1361 2334.99 1365.02 2334.13 1368 2292.87 1368 2292.01 1365.02 2290 1361Z" fill="#00196F" fill-rule="evenodd"/><path d="M2264.5 1349C2271.52 1349 2277.92 1351.51 2282.74 1355.63L2284 1357 2245 1357 2246.26 1355.63C2251.08 1351.51 2257.48 1349 2264.5 1349Z" fill="#00196F" fill-rule="evenodd"/><path d="M2245.16 1357 2283.84 1357 2286.81 1360.64 2287 1361 2242 1361 2242.19 1360.64 2245.16 1357Z" fill="#00196F" fill-rule="evenodd"/><path d="M2241.42 1361 2286.58 1361 2288.88 1365.27 2289.86 1368.44 2290.45 1370.36C2290.81 1372.13 2291 1373.96 2291 1375.84 2291 1390.84 2278.91 1403 2264 1403 2249.09 1403 2237 1390.84 2237 1375.84 2237 1373.96 2237.19 1372.13 2237.55 1370.36L2238.14 1368.44 2239.12 1365.27 2241.42 1361ZM2264 1362.8C2260.42 1362.8 2257.18 1364.26 2254.84 1366.62L2253.62 1368.44 2252.06 1370.76C2251.4 1372.32 2251.04 1374.04 2251.04 1375.84 2251.04 1383.04 2256.84 1388.87 2264 1388.87 2271.16 1388.87 2276.96 1383.04 2276.96 1375.84 2276.96 1374.04 2276.6 1372.32 2275.94 1370.76L2274.38 1368.44 2273.16 1366.62C2270.82 1364.26 2267.58 1362.8 2264 1362.8Z" fill="#00196F" fill-rule="evenodd"/><path d="M2264.5 1369C2268.09 1369 2271 1371.91 2271 1375.5 2271 1379.09 2268.09 1382 2264.5 1382 2260.91 1382 2258 1379.09 2258 1375.5 2258 1371.91 2260.91 1369 2264.5 1369Z" fill="#00196F" fill-rule="evenodd"/><path d="M2388 1361 2405.06 1361C2406.69 1361 2408 1362.4 2408 1364.13L2408 1364.87C2408 1366.6 2406.69 1368 2405.06 1368L2390.91 1368 2390.05 1365.02 2388 1361Z" fill="#00196F" fill-rule="evenodd"/><path d="M2362.5 1349C2369.52 1349 2375.92 1351.51 2380.74 1355.63L2382 1357 2343 1357 2344.26 1355.63C2349.08 1351.51 2355.48 1349 2362.5 1349Z" fill="#00196F" fill-rule="evenodd"/><path d="M2222.74 1338 2406.26 1338C2411.09 1338 2415 1340.8 2415 1344.26L2415 1345.74C2415 1349.2 2411.09 1352 2406.26 1352L2382.33 1352 2381.08 1350.97C2376.31 1347.86 2369.96 1345.97 2363 1345.97 2356.05 1345.97 2349.7 1347.86 2344.93 1350.97L2343.68 1352 2283.84 1352 2282.59 1350.97C2277.82 1347.86 2271.48 1345.97 2264.52 1345.97 2257.56 1345.97 2251.22 1347.86 2246.45 1350.97L2245.2 1352 2222.74 1352C2217.91 1352 2214 1349.2 2214 1345.74L2214 1344.26C2214 1340.8 2217.91 1338 2222.74 1338Z" fill="#00196F" fill-rule="evenodd"/><path d="M2343.45 1357 2381.55 1357 2384.47 1360.48 2384.66 1360.83 2384.66 1360.83 2386.92 1365.11 2387.88 1368.29 2387.88 1368.29 2388.46 1370.23C2388.81 1372.01 2389 1373.84 2389 1375.73 2389 1390.79 2377.14 1403 2362.5 1403 2347.86 1403 2336 1390.79 2336 1375.73 2336 1373.84 2336.19 1372.01 2336.54 1370.23L2337.12 1368.29 2337.12 1368.29 2338.08 1365.11 2340.34 1360.83 2340.34 1360.83 2340.53 1360.48 2343.45 1357ZM2362.5 1362.64C2358.99 1362.64 2355.81 1364.1 2353.51 1366.47L2352.31 1368.29 2352.31 1368.29 2350.78 1370.63C2350.14 1372.2 2349.78 1373.92 2349.78 1375.73 2349.78 1382.96 2355.48 1388.82 2362.5 1388.82 2369.52 1388.82 2375.22 1382.96 2375.22 1375.73 2375.22 1373.92 2374.86 1372.2 2374.22 1370.63L2372.69 1368.29 2371.49 1366.47C2369.19 1364.1 2366.01 1362.64 2362.5 1362.64Z" fill="#00196F" fill-rule="evenodd"/><path d="M2362.5 1369C2366.09 1369 2369 1371.91 2369 1375.5 2369 1379.09 2366.09 1382 2362.5 1382 2358.91 1382 2356 1379.09 2356 1375.5 2356 1371.91 2358.91 1369 2362.5 1369Z" fill="#00196F" fill-rule="evenodd"/><path d="M2225 1243.05 2225.44 1258 2401.66 1258 2404.77 1249.65 2407 1239.54 2395.88 1235.14 2385.2 1240.42 2384.75 1221.08 2371.85 1218.44 2365.62 1218 2356.72 1218.88 2360.28 1225.91 2353.16 1223.27 2348.71 1227.67 2347.82 1218.88 2338.47 1219.76 2331.8 1219.76 2330.46 1226.79 2325.12 1221.08 2316.67 1229.43 2318.45 1242.62 2305.1 1222.4 2284.18 1236.02 2285.07 1228.55 2278.4 1222.4 2265.05 1230.75 2265.49 1236.46 2262.38 1235.14 2258.37 1228.55 2245.91 1234.7 2245.91 1241.74 2245.91 1248.77 2239.24 1243.05 2225 1243.05Z" fill="#00196F" fill-rule="evenodd"/><path d="M2231.3 1290.36C2230.15 1290.36 2229.22 1291.29 2229.22 1292.44L2229.22 1292.94C2229.22 1294.09 2230.15 1295.03 2231.3 1295.03L2402.19 1295.03C2403.34 1295.03 2404.27 1294.09 2404.27 1292.94L2404.27 1292.44C2404.27 1291.29 2403.34 1290.36 2402.19 1290.36ZM2226.14 1280 2412.3 1280C2416.37 1280 2417 1283.31 2417 1287.39L2412.3 1335 2226.14 1335C2223.65 1313.68 2221 1294.77 2221 1285.61 2221 1281.53 2222.07 1280 2226.14 1280Z" fill="#00196F" fill-rule="evenodd"/></g></svg>