<svg width="660" height="847" xmlns="http://www.w3.org/2000/svg" xmlns:xlink="http://www.w3.org/1999/xlink" xml:space="preserve" overflow="hidden"><g transform="translate(-2602 -859)"><rect x="2607" y="864" width="650" height="650" stroke="#00196F" stroke-width="10.3125" stroke-linejoin="round" stroke-miterlimit="10" fill="none"/><path d="M2789.32 1462.1 2787.62 1460.55C2787.38 1460.33 2787.15 1460.09 2786.94 1459.84L2785.66 1458.27C2785.28 1457.81 2784.97 1457.31 2784.72 1456.78L2783.26 1453.6C2782.89 1452.8 2782.68 1451.95 2782.64 1451.07L2782.48 1447.85C2782.44 1447.11 2782.52 1446.37 2782.72 1445.65L2783.63 1442.4C2783.77 1441.91 2783.96 1441.44 2784.2 1441L2785.95 1437.73 2788.83 1433.67 2794.95 1426.69 2797.9 1423.44 2800.31 1420.54 2802.02 1418 2801.44 1419.02 2802.8 1416.06 2802.24 1417.98 2802.64 1415.12 2802.84 1417.96 2802.05 1415.22 2802.99 1417.21 2802.08 1415.89 2802.89 1416.86 2801.6 1415.57 2802.38 1416.24 2800.69 1414.99 2799.23 1414.22 2797.12 1413.02 2794.79 1411.38C2794.51 1411.17 2794.24 1410.95 2794 1410.7L2792.76 1409.47C2792.45 1409.16 2792.16 1408.82 2791.92 1408.46L2791.07 1407.21C2790.62 1406.56 2790.29 1405.83 2790.09 1405.05L2789.44 1402.51C2789.18 1401.51 2789.15 1400.46 2789.35 1399.44L2789.88 1396.83C2790.02 1396.16 2790.25 1395.52 2790.57 1394.92L2792.02 1392.25C2792.19 1391.92 2792.39 1391.62 2792.61 1391.33L2794.72 1388.58 2797.55 1385.38 2800.27 1382.41 2802.64 1379.61 2804.41 1377.05 2803.84 1378.01 2805.36 1374.87 2804.8 1376.56 2805.43 1373.32 2805.39 1375.71 2804.86 1372.39 2805.67 1374.71 2803.73 1371.29 2804.62 1372.51 2803.03 1370.77 2801.58 1369.57 2799.58 1368.19 2797.01 1366.67C2795.17 1365.57 2793.95 1363.67 2793.71 1361.54L2792.42 1350.18 2791.63 1339.49 2791.28 1329.59 2791.28 1320.33 2791.53 1311.55 2791.92 1303.11 2792.07 1300.17 2805.81 1300.87 2805.66 1303.76 2805.27 1311.94 2805.03 1320.33 2805.03 1329.12 2805.34 1338.49 2806.08 1348.63 2807.37 1360 2804.07 1354.87 2807.56 1356.99 2810.6 1359.19 2813.21 1361.53 2814.8 1363.27C2815.14 1363.65 2815.43 1364.06 2815.68 1364.49L2817.63 1367.91C2818.03 1368.63 2818.31 1369.41 2818.44 1370.23L2818.97 1373.55C2819.09 1374.34 2819.08 1375.15 2818.93 1375.94L2818.3 1379.17C2818.19 1379.76 2818 1380.32 2817.74 1380.86L2816.22 1384C2816.06 1384.34 2815.86 1384.67 2815.65 1384.97L2813.11 1388.53 2810.41 1391.69 2807.82 1394.51 2805.63 1396.95 2803.52 1399.7 2804.12 1398.78 2802.67 1401.46 2803.36 1399.55 2802.83 1402.16 2802.75 1399.09 2803.41 1401.63 2802.43 1399.47 2803.28 1400.72 2802.44 1399.71 2803.68 1400.94 2802.89 1400.27 2803.9 1401.06 2806.03 1402.27 2808.85 1403.93 2810.55 1405.18C2810.83 1405.39 2811.09 1405.61 2811.33 1405.85L2812.62 1407.14C2812.92 1407.44 2813.19 1407.77 2813.43 1408.12L2814.33 1409.44C2814.75 1410.05 2815.07 1410.72 2815.27 1411.44L2816.06 1414.18C2816.32 1415.1 2816.39 1416.07 2816.26 1417.03L2815.85 1419.89C2815.76 1420.55 2815.57 1421.19 2815.29 1421.8L2813.93 1424.76C2813.77 1425.12 2813.57 1425.46 2813.35 1425.79L2810.87 1429.35 2808.08 1432.68 2805.26 1435.79 2799.94 1441.76 2798.06 1444.24 2796.31 1447.51 2796.87 1446.1 2795.96 1449.35 2796.21 1447.15 2796.37 1450.38 2795.75 1447.85 2797.21 1451.03 2796.28 1449.54 2797.57 1451.11 2796.9 1450.4 2798.59 1451.95ZM2767.06 1336.74 2799.63 1286.9 2826.99 1339.78C2828.73 1343.15 2827.41 1347.3 2824.04 1349.05 2820.66 1350.79 2816.52 1349.47 2814.77 1346.1L2792.83 1303.68 2804.69 1304.28 2778.57 1344.26C2776.49 1347.44 2772.23 1348.33 2769.05 1346.25 2765.88 1344.18 2764.98 1339.92 2767.06 1336.74Z" fill="#00196F"/><path d="M2855.5 1493.05 2853.81 1491.49C2853.57 1491.27 2853.34 1491.03 2853.13 1490.78L2851.84 1489.21C2851.47 1488.76 2851.16 1488.26 2850.91 1487.72L2849.45 1484.54C2849.08 1483.75 2848.87 1482.89 2848.83 1482.02L2848.66 1478.8C2848.63 1478.06 2848.71 1477.31 2848.91 1476.6L2849.82 1473.35C2849.95 1472.86 2850.14 1472.39 2850.38 1471.94L2852.14 1468.67 2855.01 1464.62 2861.13 1457.64 2864.08 1454.39 2866.5 1451.49 2868.21 1448.95 2867.63 1449.97 2868.99 1447.01 2868.43 1448.92 2868.83 1446.06 2869.02 1448.91 2868.24 1446.16 2869.18 1448.16 2868.27 1446.83 2869.08 1447.81 2867.79 1446.52 2868.57 1447.19 2866.87 1445.94 2865.42 1445.17 2863.31 1443.97 2860.97 1442.32C2860.7 1442.12 2860.43 1441.89 2860.19 1441.65L2858.94 1440.42C2858.63 1440.11 2858.35 1439.77 2858.1 1439.41L2857.25 1438.16C2856.81 1437.5 2856.47 1436.77 2856.28 1436L2855.62 1433.46C2855.36 1432.45 2855.34 1431.4 2855.54 1430.39L2856.07 1427.78C2856.2 1427.11 2856.44 1426.47 2856.76 1425.87L2858.21 1423.19C2858.38 1422.87 2858.58 1422.56 2858.8 1422.28L2860.91 1419.53 2863.74 1416.32 2866.45 1413.35 2868.82 1410.56 2870.6 1407.99 2870.03 1408.96 2871.55 1405.82 2870.99 1407.5 2871.62 1404.27 2871.58 1406.66 2871.05 1403.33 2871.86 1405.65 2869.92 1402.24 2870.8 1403.46 2869.22 1401.72 2867.77 1400.52 2865.77 1399.13 2863.19 1397.61C2861.36 1396.51 2860.14 1394.62 2859.9 1392.49L2858.61 1381.12 2857.82 1370.44 2857.47 1360.54 2857.47 1351.28 2857.72 1342.5 2858.11 1334.06 2858.26 1331.12 2871.99 1331.82 2871.85 1334.7 2871.46 1342.89 2871.22 1351.28 2871.21 1360.06 2871.53 1369.43 2872.27 1379.57 2873.56 1390.94 2870.26 1385.82 2873.75 1387.93 2876.79 1390.14 2879.4 1392.47 2880.99 1394.22C2881.32 1394.59 2881.62 1395 2881.87 1395.44L2883.81 1398.86C2884.22 1399.57 2884.5 1400.36 2884.63 1401.17L2885.16 1404.5C2885.28 1405.29 2885.27 1406.1 2885.12 1406.89L2884.49 1410.12C2884.38 1410.7 2884.19 1411.27 2883.93 1411.81L2882.41 1414.95C2882.24 1415.29 2882.05 1415.61 2881.84 1415.92L2879.29 1419.47 2876.6 1422.63 2874.01 1425.46 2871.82 1427.9 2869.71 1430.65 2870.3 1429.73 2868.86 1432.41 2869.55 1430.5 2869.02 1433.11 2868.94 1430.03 2869.59 1432.58 2868.62 1430.42 2869.47 1431.67 2868.63 1430.66 2869.87 1431.89 2869.08 1431.22 2870.08 1432 2872.22 1433.21 2875.04 1434.87 2876.74 1436.13C2877.01 1436.33 2877.27 1436.56 2877.52 1436.8L2878.81 1438.09C2879.1 1438.39 2879.37 1438.71 2879.61 1439.06L2880.52 1440.39C2880.94 1441 2881.26 1441.67 2881.46 1442.38L2882.25 1445.13C2882.51 1446.05 2882.58 1447.02 2882.44 1447.97L2882.04 1450.83C2881.95 1451.49 2881.76 1452.14 2881.48 1452.75L2880.12 1455.71C2879.96 1456.07 2879.76 1456.41 2879.54 1456.73L2877.06 1460.29 2874.26 1463.63 2871.44 1466.74 2866.13 1472.71 2864.25 1475.19 2862.49 1478.45 2863.06 1477.05 2862.15 1480.3 2862.4 1478.1 2862.56 1481.32 2861.94 1478.8 2863.4 1481.98 2862.47 1480.49 2863.76 1482.05 2863.08 1481.34 2864.78 1482.9ZM2833.25 1367.68 2865.82 1317.84 2893.17 1370.73C2894.92 1374.1 2893.6 1378.25 2890.23 1379.99 2886.85 1381.74 2882.7 1380.42 2880.96 1377.04L2859.02 1334.63 2870.88 1335.23 2844.76 1375.21C2842.68 1378.38 2838.42 1379.28 2835.24 1377.2 2832.06 1375.12 2831.17 1370.86 2833.25 1367.68Z" fill="#00196F"/><path d="M2921.69 1462.1 2919.99 1460.55C2919.75 1460.33 2919.53 1460.09 2919.32 1459.84L2918.03 1458.27C2917.66 1457.81 2917.34 1457.31 2917.1 1456.78L2915.64 1453.6C2915.27 1452.8 2915.06 1451.95 2915.02 1451.07L2914.85 1447.85C2914.81 1447.11 2914.9 1446.37 2915.1 1445.65L2916.01 1442.4C2916.14 1441.91 2916.33 1441.44 2916.57 1441L2918.33 1437.73 2921.2 1433.67 2927.32 1426.69 2930.27 1423.44 2932.69 1420.54 2934.39 1418 2933.81 1419.02 2935.17 1416.06 2934.61 1417.98 2935.01 1415.12 2935.21 1417.96 2934.43 1415.22 2935.37 1417.21 2934.46 1415.89 2935.27 1416.86 2933.98 1415.57 2934.76 1416.24 2933.06 1414.99 2931.61 1414.22 2929.5 1413.02 2927.16 1411.38C2926.88 1411.17 2926.62 1410.95 2926.37 1410.7L2925.13 1409.47C2924.82 1409.16 2924.54 1408.82 2924.29 1408.46L2923.44 1407.21C2922.99 1406.56 2922.66 1405.83 2922.46 1405.05L2921.81 1402.51C2921.55 1401.51 2921.53 1400.46 2921.73 1399.44L2922.26 1396.83C2922.39 1396.16 2922.62 1395.52 2922.95 1394.92L2924.39 1392.25C2924.57 1391.92 2924.77 1391.62 2924.99 1391.33L2927.1 1388.58 2929.92 1385.38 2932.64 1382.41 2935.01 1379.61 2936.79 1377.05 2936.22 1378.01 2937.74 1374.87 2937.18 1376.56 2937.8 1373.32 2937.76 1375.71 2937.24 1372.39 2938.05 1374.71 2936.11 1371.29 2936.99 1372.51 2935.41 1370.77 2933.96 1369.57 2931.96 1368.19 2929.38 1366.67C2927.54 1365.57 2926.33 1363.67 2926.08 1361.54L2924.8 1350.18 2924.01 1339.49 2923.66 1329.59 2923.66 1320.33 2923.9 1311.55 2924.3 1303.11 2924.45 1300.17 2938.18 1300.87 2938.03 1303.76 2937.65 1311.94 2937.41 1320.33 2937.4 1329.12 2937.72 1338.49 2938.46 1348.63 2939.75 1360 2936.45 1354.87 2939.94 1356.99 2942.98 1359.19 2945.59 1361.53 2947.17 1363.27C2947.51 1363.65 2947.81 1364.06 2948.06 1364.49L2950 1367.91C2950.41 1368.63 2950.69 1369.41 2950.82 1370.23L2951.34 1373.55C2951.47 1374.34 2951.46 1375.15 2951.3 1375.94L2950.68 1379.17C2950.56 1379.76 2950.38 1380.32 2950.12 1380.86L2948.59 1384C2948.43 1384.34 2948.24 1384.67 2948.02 1384.97L2945.48 1388.53 2942.78 1391.69 2940.2 1394.51 2938.01 1396.95 2935.9 1399.7 2936.49 1398.78 2935.04 1401.46 2935.73 1399.55 2935.21 1402.16 2935.13 1399.09 2935.78 1401.63 2934.8 1399.47 2935.65 1400.72 2934.81 1399.71 2936.06 1400.94 2935.27 1400.27 2936.27 1401.06 2938.41 1402.27 2941.23 1403.93 2942.92 1405.18C2943.2 1405.39 2943.46 1405.61 2943.71 1405.85L2944.99 1407.14C2945.29 1407.44 2945.56 1407.77 2945.8 1408.12L2946.71 1409.44C2947.13 1410.05 2947.44 1410.72 2947.65 1411.44L2948.43 1414.18C2948.7 1415.1 2948.76 1416.07 2948.63 1417.03L2948.23 1419.89C2948.14 1420.55 2947.95 1421.19 2947.67 1421.8L2946.31 1424.76C2946.14 1425.12 2945.95 1425.46 2945.73 1425.79L2943.25 1429.35 2940.45 1432.68 2937.63 1435.79 2932.32 1441.76 2930.44 1444.24 2928.68 1447.51 2929.25 1446.1 2928.34 1449.35 2928.58 1447.15 2928.75 1450.38 2928.13 1447.85 2929.59 1451.03 2928.66 1449.54 2929.94 1451.11 2929.27 1450.4 2930.97 1451.95ZM2899.44 1336.74 2932.01 1286.9 2959.36 1339.78C2961.11 1343.15 2959.79 1347.3 2956.41 1349.05 2953.04 1350.79 2948.89 1349.47 2947.15 1346.1L2925.21 1303.68 2937.07 1304.28 2910.95 1344.26C2908.87 1347.44 2904.61 1348.33 2901.43 1346.25 2898.25 1344.18 2897.36 1339.92 2899.44 1336.74Z" fill="#00196F"/><path d="M2987.88 1493.05 2986.18 1491.49C2985.94 1491.27 2985.71 1491.03 2985.51 1490.78L2984.22 1489.21C2983.85 1488.76 2983.53 1488.26 2983.29 1487.72L2981.82 1484.54C2981.46 1483.75 2981.25 1482.89 2981.2 1482.02L2981.04 1478.8C2981 1478.06 2981.08 1477.31 2981.28 1476.6L2982.19 1473.35C2982.33 1472.86 2982.52 1472.39 2982.76 1471.94L2984.52 1468.67 2987.39 1464.62 2993.51 1457.64 2996.46 1454.39 2998.87 1451.49 3000.58 1448.95 3000 1449.97 3001.36 1447.01 3000.8 1448.92 3001.2 1446.06 3001.4 1448.91 3000.62 1446.16 3001.55 1448.16 3000.65 1446.83 3001.45 1447.81 3000.17 1446.52 3000.95 1447.19 2999.25 1445.94 2997.8 1445.17 2995.68 1443.97 2993.35 1442.32C2993.07 1442.12 2992.81 1441.89 2992.56 1441.65L2991.32 1440.42C2991.01 1440.11 2990.73 1439.77 2990.48 1439.41L2989.63 1438.16C2989.18 1437.5 2988.85 1436.77 2988.65 1436L2988 1433.46C2987.74 1432.45 2987.71 1431.4 2987.92 1430.39L2988.44 1427.78C2988.58 1427.11 2988.81 1426.47 2989.14 1425.87L2990.58 1423.19C2990.76 1422.87 2990.95 1422.56 2991.18 1422.28L2993.28 1419.53 2996.11 1416.32 2998.83 1413.35 3001.2 1410.56 3002.98 1407.99 3002.41 1408.96 3003.93 1405.82 3003.37 1407.5 3003.99 1404.27 3003.95 1406.66 3003.42 1403.33 3004.24 1405.65 3002.29 1402.24 3003.18 1403.46 3001.6 1401.72 3000.14 1400.52 2998.15 1399.13 2995.57 1397.61C2993.73 1396.51 2992.51 1394.62 2992.27 1392.49L2990.98 1381.12 2990.19 1370.44 2989.85 1360.54 2989.85 1351.28 2990.09 1342.5 2990.49 1334.06 2990.64 1331.12 3004.37 1331.82 3004.22 1334.7 3003.84 1342.89 3003.6 1351.28 3003.59 1360.06 3003.91 1369.43 3004.65 1379.57 3005.93 1390.94 3002.64 1385.82 3006.12 1387.93 3009.16 1390.14 3011.78 1392.47 3013.36 1394.22C3013.7 1394.59 3014 1395 3014.25 1395.44L3016.19 1398.86C3016.6 1399.57 3016.87 1400.36 3017 1401.17L3017.53 1404.5C3017.66 1405.29 3017.64 1406.1 3017.49 1406.89L3016.86 1410.12C3016.75 1410.7 3016.56 1411.27 3016.3 1411.81L3014.78 1414.95C3014.62 1415.29 3014.43 1415.61 3014.21 1415.92L3011.67 1419.47 3008.97 1422.63 3006.39 1425.46 3004.19 1427.9 3002.08 1430.65 3002.68 1429.73 3001.23 1432.41 3001.92 1430.5 3001.4 1433.11 3001.32 1430.03 3001.97 1432.58 3000.99 1430.42 3001.84 1431.67 3001 1430.66 3002.24 1431.89 3001.46 1431.22 3002.46 1432 3004.6 1433.21 3007.41 1434.87 3009.11 1436.13C3009.39 1436.33 3009.65 1436.56 3009.89 1436.8L3011.18 1438.09C3011.48 1438.39 3011.75 1438.71 3011.99 1439.06L3012.9 1440.39C3013.31 1441 3013.63 1441.67 3013.84 1442.38L3014.62 1445.13C3014.88 1446.05 3014.95 1447.02 3014.82 1447.97L3014.42 1450.83C3014.32 1451.49 3014.14 1452.14 3013.86 1452.75L3012.49 1455.71C3012.33 1456.07 3012.14 1456.41 3011.91 1456.73L3009.43 1460.29 3006.64 1463.63 3003.82 1466.74 2998.51 1472.71 2996.63 1475.19 2994.87 1478.45 2995.44 1477.05 2994.53 1480.3 2994.77 1478.1 2994.94 1481.32 2994.31 1478.8 2995.78 1481.98 2994.84 1480.49 2996.13 1482.05 2995.46 1481.34 2997.16 1482.9ZM2965.62 1367.68 2998.19 1317.84 3025.55 1370.73C3027.29 1374.1 3025.97 1378.25 3022.6 1379.99 3019.23 1381.74 3015.08 1380.42 3013.34 1377.04L2991.4 1334.63 3003.26 1335.23 2977.13 1375.21C2975.06 1378.38 2970.8 1379.28 2967.62 1377.2 2964.44 1375.12 2963.55 1370.86 2965.62 1367.68Z" fill="#00196F"/><path d="M3054.07 1462.1 3052.37 1460.55C3052.13 1460.33 3051.9 1460.09 3051.7 1459.84L3050.41 1458.27C3050.03 1457.81 3049.72 1457.31 3049.47 1456.78L3048.01 1453.6C3047.65 1452.8 3047.44 1451.95 3047.39 1451.07L3047.23 1447.85C3047.19 1447.11 3047.27 1446.37 3047.47 1445.65L3048.38 1442.4C3048.52 1441.91 3048.71 1441.44 3048.95 1441L3050.7 1437.73 3053.58 1433.67 3059.7 1426.69 3062.65 1423.44 3065.06 1420.54 3066.77 1418 3066.19 1419.02 3067.55 1416.06 3066.99 1417.98 3067.39 1415.12 3067.59 1417.96 3066.8 1415.22 3067.74 1417.21 3066.84 1415.89 3067.64 1416.86 3066.35 1415.57 3067.13 1416.24 3065.44 1414.99 3063.98 1414.22 3061.87 1413.02 3059.54 1411.38C3059.26 1411.17 3059 1410.95 3058.75 1410.7L3057.51 1409.47C3057.2 1409.16 3056.91 1408.82 3056.67 1408.46L3055.82 1407.21C3055.37 1406.56 3055.04 1405.83 3054.84 1405.05L3054.19 1402.51C3053.93 1401.51 3053.9 1400.46 3054.11 1399.44L3054.63 1396.83C3054.77 1396.16 3055 1395.52 3055.32 1394.92L3056.77 1392.25C3056.94 1391.92 3057.14 1391.62 3057.36 1391.33L3059.47 1388.58 3062.3 1385.38 3065.02 1382.41 3067.39 1379.61 3069.16 1377.05 3068.59 1378.01 3070.12 1374.87 3069.55 1376.56 3070.18 1373.32 3070.14 1375.71 3069.61 1372.39 3070.43 1374.71 3068.48 1371.29 3069.37 1372.51 3067.79 1370.77 3066.33 1369.57 3064.34 1368.19 3061.76 1366.67C3059.92 1365.57 3058.7 1363.67 3058.46 1361.54L3057.17 1350.18 3056.38 1339.49 3056.04 1329.59 3056.03 1320.33 3056.28 1311.55 3056.67 1303.11 3056.82 1300.17 3070.56 1300.87 3070.41 1303.76 3070.02 1311.94 3069.78 1320.33 3069.78 1329.12 3070.1 1338.49 3070.83 1348.63 3072.12 1360 3068.83 1354.87 3072.31 1356.99 3075.35 1359.19 3077.97 1361.53 3079.55 1363.27C3079.89 1363.65 3080.19 1364.06 3080.43 1364.49L3082.38 1367.91C3082.79 1368.63 3083.06 1369.41 3083.19 1370.23L3083.72 1373.55C3083.85 1374.34 3083.83 1375.15 3083.68 1375.94L3083.05 1379.17C3082.94 1379.76 3082.75 1380.32 3082.49 1380.86L3080.97 1384C3080.81 1384.34 3080.62 1384.67 3080.4 1384.97L3077.86 1388.53 3075.16 1391.69 3072.57 1394.51 3070.38 1396.95 3068.27 1399.7 3068.87 1398.78 3067.42 1401.46 3068.11 1399.55 3067.58 1402.16 3067.5 1399.09 3068.16 1401.63 3067.18 1399.47 3068.03 1400.72 3067.19 1399.71 3068.43 1400.94 3067.65 1400.27 3068.65 1401.06 3070.78 1402.27 3073.6 1403.93 3075.3 1405.18C3075.58 1405.39 3075.84 1405.61 3076.08 1405.85L3077.37 1407.14C3077.67 1407.44 3077.94 1407.77 3078.18 1408.12L3079.08 1409.44C3079.5 1410.05 3079.82 1410.72 3080.02 1411.44L3080.81 1414.18C3081.07 1415.1 3081.14 1416.07 3081.01 1417.03L3080.61 1419.89C3080.51 1420.55 3080.32 1421.19 3080.04 1421.8L3078.68 1424.76C3078.52 1425.12 3078.32 1425.46 3078.1 1425.79L3075.62 1429.35 3072.83 1432.68 3070.01 1435.79 3064.7 1441.76 3062.81 1444.24 3061.06 1447.51 3061.62 1446.1 3060.71 1449.35 3060.96 1447.15 3061.12 1450.38 3060.5 1447.85 3061.97 1451.03 3061.03 1449.54 3062.32 1451.11 3061.65 1450.4 3063.34 1451.95ZM3031.81 1336.74 3064.38 1286.9 3091.74 1339.78C3093.48 1343.15 3092.16 1347.3 3088.79 1349.05 3085.42 1350.79 3081.27 1349.47 3079.52 1346.1L3057.58 1303.68 3069.45 1304.28 3043.32 1344.26C3041.25 1347.44 3036.98 1348.33 3033.81 1346.25 3030.63 1344.18 3029.73 1339.92 3031.81 1336.74Z" fill="#00196F"/><path d="M66.889 173.588 66.889 203.632 26.7555 203.632 26.7555 173.588ZM133.778 173.588 133.778 203.632 93.6446 203.632 93.6446 173.588ZM200.667 173.588 200.667 203.632 162.333 203.632 162.333 173.588ZM269.355 173.588 269.355 203.632 229.222 203.632 229.222 173.588ZM336.244 173.588 336.244 203.632 296.111 203.632 296.111 173.588ZM352.967 0 326.211 0 316.178 136.868 227.423 90.9322 227.423 90.1323 226.65 90.5323 225.877 90.1323 225.877 90.9322 181.5 113.9 137.123 90.9322 137.123 90.1323 136.35 90.5323 135.577 90.1323 135.577 90.9322 46.8223 136.868 36.789 0 10.0333 0 0 136.868 0 227 135.577 227 227.423 227 363 227 363 136.868Z" fill="#00196F" fill-rule="evenodd" transform="matrix(-1 0 0 1 3110 1017)"/><path d="M2772.89 1007.5C2776.89 1004.4 2781.49 996.506 2781.55 990.451 2781.61 984.396 2778.39 979.065 2773.28 971.172 2768.16 960.294 2777.06 950.379 2777.37 942.716" stroke="#00196F" stroke-width="10.3125" stroke-linejoin="round" stroke-miterlimit="10" fill="none" fill-rule="evenodd"/><path d="M2758.73 1007.5C2762.73 1004.4 2767.33 996.506 2767.39 990.451 2767.46 984.396 2764.23 979.065 2759.12 971.172 2754.01 960.294 2762.9 950.379 2763.21 942.716" stroke="#00196F" stroke-width="10.3125" stroke-linejoin="round" stroke-miterlimit="10" fill="none" fill-rule="evenodd"/><path d="M3091.33 1006.38C3095.33 1003.28 3099.92 995.385 3099.99 989.33 3100.05 983.275 3096.83 977.944 3091.71 970.051 3086.6 959.173 3095.5 949.259 3095.81 941.595" stroke="#00196F" stroke-width="10.3125" stroke-linejoin="round" stroke-miterlimit="10" fill="none" fill-rule="evenodd"/><path d="M3077.17 1006.38C3081.17 1003.28 3085.77 995.385 3085.83 989.33 3085.89 983.275 3082.67 977.944 3077.56 970.051 3072.44 959.173 3081.34 949.259 3081.65 941.595" stroke="#00196F" stroke-width="10.3125" stroke-linejoin="round" stroke-miterlimit="10" fill="none" fill-rule="evenodd"/><rect x="2708" y="1252" width="439" height="18.9999" fill="#00196F"/><text fill="#1255C8" font-family="Calibri,Calibri_MSFontService,sans-serif" font-weight="400" font-size="92" transform="matrix(1 0 0 1 2707.13 1627)">Géothermie</text></g></svg>