<svg width="659" height="849" xmlns="http://www.w3.org/2000/svg" xmlns:xlink="http://www.w3.org/1999/xlink" xml:space="preserve" overflow="hidden"><g transform="translate(-3422 -857)"><rect x="3427" y="862" width="649" height="650" stroke="#00196F" stroke-width="10.3125" stroke-linejoin="round" stroke-miterlimit="10" fill="none"/><g><g><g><path d="M3961.9 959.458 3961.9 936.875C3961.9 930.639 3956.84 925.583 3950.6 925.583L3928.02 925.583C3921.78 925.583 3916.73 930.639 3916.73 936.875L3916.73 959.458 3583.62 959.458 3583.62 936.875C3583.62 930.639 3578.57 925.583 3572.33 925.583L3549.75 925.583C3543.51 925.583 3538.46 930.639 3538.46 936.875L3538.46 959.458 3527.51 1281.14C3535.26 1280.59 3542.87 1278.8 3550.05 1275.84 3560.85 1271.53 3572.31 1269.11 3583.92 1268.67 3585.82 1268.74 3587.69 1268.95 3589.57 1269.12L3589.57 1048.48C3589.57 1036.01 3599.68 1025.9 3612.15 1025.9L3651.67 1025.9C3664.15 1025.9 3674.26 1036.01 3674.26 1048.48L3674.26 1272.17C3681.63 1270.16 3689.21 1268.98 3696.84 1268.67 3700.52 1268.83 3704.19 1269.19 3707.83 1269.75L3707.83 1049.79C3707.83 1037.32 3717.94 1027.21 3730.42 1027.21L3769.94 1027.21C3782.41 1027.21 3792.52 1037.32 3792.52 1049.79L3792.52 1270.8C3798.19 1269.6 3803.96 1268.89 3809.76 1268.67 3815.45 1268.88 3821.12 1269.58 3826.69 1270.75L3826.69 1055.44C3826.69 1042.97 3836.81 1032.85 3849.28 1032.85L3888.8 1032.85C3901.27 1032.85 3911.38 1042.97 3911.38 1055.44L3911.38 1269.8C3915.12 1269.21 3918.89 1268.84 3922.67 1268.68 3934.29 1269.11 3945.75 1271.53 3956.55 1275.85 3963.46 1278.73 3970.78 1280.5 3978.25 1281.08Z" fill="#00196F"/><path d="M3956.55 1381.92C3945.75 1377.61 3934.29 1375.18 3922.67 1374.75L3922.67 1374.75C3911.06 1375.18 3899.6 1377.61 3888.8 1381.92 3881.61 1384.9 3873.98 1386.69 3866.22 1387.23L3866.22 1387.23C3858.45 1386.69 3850.82 1384.9 3843.63 1381.92 3832.83 1377.61 3821.38 1375.18 3809.76 1374.75L3809.76 1374.75C3798.14 1375.18 3786.68 1377.61 3775.88 1381.92 3768.69 1384.89 3761.06 1386.68 3753.3 1387.23 3745.53 1386.69 3737.91 1384.9 3730.72 1381.92 3719.92 1377.61 3708.46 1375.18 3696.84 1374.75L3696.84 1374.75C3685.22 1375.18 3673.76 1377.61 3662.97 1381.92 3655.77 1384.9 3648.15 1386.69 3640.38 1387.23 3632.62 1386.69 3624.99 1384.9 3617.8 1381.92 3607 1377.61 3595.54 1375.18 3583.92 1374.75L3583.92 1374.75C3572.31 1375.19 3560.85 1377.62 3550.05 1381.92 3542.86 1384.89 3535.23 1386.68 3527.47 1387.23L3527.47 1421.1C3539.08 1420.67 3550.54 1418.24 3561.34 1413.93 3568.53 1410.94 3576.16 1409.13 3583.92 1408.57 3591.69 1409.13 3599.32 1410.94 3606.51 1413.93 3617.31 1418.24 3628.76 1420.67 3640.38 1421.1L3640.38 1421.1C3652 1420.67 3663.46 1418.24 3674.26 1413.93 3681.45 1410.94 3689.07 1409.13 3696.84 1408.57 3704.6 1409.11 3712.23 1410.9 3719.42 1413.87 3730.22 1418.21 3741.68 1420.65 3753.3 1421.1 3764.92 1420.67 3776.38 1418.24 3787.17 1413.93 3794.37 1410.94 3801.99 1409.13 3809.76 1408.57 3817.52 1409.13 3825.15 1410.94 3832.34 1413.93 3843.14 1418.24 3854.6 1420.67 3866.22 1421.1L3866.22 1421.1C3877.83 1420.67 3889.29 1418.24 3900.09 1413.93 3907.28 1410.94 3914.91 1409.13 3922.67 1408.57 3930.44 1409.11 3938.06 1410.9 3945.26 1413.87 3955.95 1418.2 3967.31 1420.65 3978.83 1421.1L3978.83 1387.23C3971.16 1386.69 3963.64 1384.9 3956.55 1381.92Z" fill="#00196F"/><path d="M3956.55 1314.17C3945.75 1309.86 3934.29 1307.43 3922.67 1307L3922.67 1307C3911.06 1307.43 3899.6 1309.86 3888.8 1314.17 3881.61 1317.15 3873.98 1318.94 3866.22 1319.48L3866.22 1319.48C3858.45 1318.94 3850.82 1317.15 3843.63 1314.17 3832.83 1309.86 3821.38 1307.43 3809.76 1307L3809.76 1307C3798.14 1307.43 3786.68 1309.86 3775.88 1314.17 3768.69 1317.14 3761.06 1318.93 3753.3 1319.48 3745.53 1318.94 3737.91 1317.15 3730.72 1314.17 3719.92 1309.86 3708.46 1307.43 3696.84 1307L3696.84 1307C3685.22 1307.43 3673.76 1309.86 3662.97 1314.17 3655.77 1317.15 3648.15 1318.94 3640.38 1319.48 3632.62 1318.94 3624.99 1317.15 3617.8 1314.17 3607 1309.86 3595.54 1307.43 3583.92 1307L3583.92 1307C3572.31 1307.44 3560.85 1309.87 3550.05 1314.17 3542.86 1317.14 3535.23 1318.93 3527.47 1319.48L3527.47 1353.35C3539.08 1352.92 3550.54 1350.49 3561.34 1346.18 3568.53 1343.19 3576.16 1341.38 3583.92 1340.82 3591.69 1341.38 3599.32 1343.19 3606.51 1346.18 3617.31 1350.49 3628.76 1352.92 3640.38 1353.35L3640.38 1353.35C3652 1352.92 3663.46 1350.49 3674.26 1346.18 3681.45 1343.19 3689.07 1341.38 3696.84 1340.82 3704.6 1341.36 3712.23 1343.15 3719.42 1346.12 3730.22 1350.46 3741.68 1352.9 3753.3 1353.35 3764.92 1352.92 3776.38 1350.49 3787.17 1346.18 3794.37 1343.19 3801.99 1341.38 3809.76 1340.82 3817.52 1341.38 3825.15 1343.19 3832.34 1346.18 3843.14 1350.49 3854.6 1352.92 3866.22 1353.35L3866.22 1353.35C3877.83 1352.92 3889.29 1350.49 3900.09 1346.18 3907.28 1343.19 3914.91 1341.38 3922.67 1340.82 3930.44 1341.36 3938.06 1343.15 3945.26 1346.12 3955.95 1350.45 3967.31 1352.9 3978.83 1353.35L3978.83 1319.48C3971.16 1318.94 3963.64 1317.15 3956.55 1314.17Z" fill="#00196F"/><path d="M3617.5 1089.31C3611.26 1089.31 3606.21 1084.26 3606.21 1078.02L3606.21 1055.44C3606.21 1049.2 3611.26 1044.15 3617.5 1044.15 3623.74 1044.15 3628.79 1049.2 3628.79 1055.44L3628.79 1078.02C3628.79 1084.26 3623.74 1089.31 3617.5 1089.31Z" fill="#00196F"/><path d="M3617.5 1276.93C3611.26 1276.93 3606.21 1271.88 3606.21 1265.64L3606.21 1243.06C3606.21 1236.82 3611.26 1231.77 3617.5 1231.77 3623.74 1231.77 3628.79 1236.82 3628.79 1243.06L3628.79 1265.64C3628.79 1271.88 3623.74 1276.93 3617.5 1276.93Z" fill="#00196F"/><path d="M3617.5 1186.6C3611.26 1186.6 3606.21 1181.55 3606.21 1175.31L3606.21 1151.42C3606.21 1145.18 3611.26 1140.13 3617.5 1140.13 3623.74 1140.13 3628.79 1145.18 3628.79 1151.42L3628.79 1175.31C3628.79 1181.55 3623.74 1186.6 3617.5 1186.6Z" fill="#00196F"/><path d="M3645.73 1230.46C3639.49 1230.46 3634.44 1225.4 3634.44 1219.17L3634.44 1197.89C3634.44 1191.66 3639.49 1186.6 3645.73 1186.6 3651.97 1186.6 3657.02 1191.66 3657.02 1197.89L3657.02 1219.17C3657.02 1225.4 3651.97 1230.46 3645.73 1230.46Z" fill="#00196F"/><path d="M3645.73 1141.43C3639.49 1141.43 3634.44 1136.38 3634.44 1130.14L3634.44 1107.56C3634.44 1101.32 3639.49 1096.27 3645.73 1096.27 3651.97 1096.27 3657.02 1101.32 3657.02 1107.56L3657.02 1130.14C3657.02 1136.38 3651.97 1141.43 3645.73 1141.43Z" fill="#00196F"/><path d="M3736.06 1089.31C3729.83 1089.31 3724.77 1084.26 3724.77 1078.02L3724.77 1055.44C3724.77 1049.2 3729.83 1044.15 3736.06 1044.15 3742.3 1044.15 3747.35 1049.2 3747.35 1055.44L3747.35 1078.02C3747.35 1084.26 3742.3 1089.31 3736.06 1089.31Z" fill="#00196F"/><path d="M3736.06 1276.93C3729.83 1276.93 3724.77 1271.88 3724.77 1265.64L3724.77 1243.06C3724.77 1236.82 3729.83 1231.77 3736.06 1231.77 3742.3 1231.77 3747.35 1236.82 3747.35 1243.06L3747.35 1265.64C3747.35 1271.88 3742.3 1276.93 3736.06 1276.93Z" fill="#00196F"/><path d="M3736.06 1186.6C3729.83 1186.6 3724.77 1181.55 3724.77 1175.31L3724.77 1151.42C3724.77 1145.18 3729.83 1140.13 3736.06 1140.13 3742.3 1140.13 3747.35 1145.18 3747.35 1151.42L3747.35 1175.31C3747.35 1181.55 3742.3 1186.6 3736.06 1186.6Z" fill="#00196F"/><path d="M3764.29 1230.46C3758.06 1230.46 3753 1225.4 3753 1219.17L3753 1197.89C3753 1191.66 3758.06 1186.6 3764.29 1186.6 3770.53 1186.6 3775.58 1191.66 3775.58 1197.89L3775.58 1219.17C3775.58 1225.4 3770.53 1230.46 3764.29 1230.46Z" fill="#00196F"/><path d="M3764.29 1141.43C3758.06 1141.43 3753 1136.38 3753 1130.14L3753 1107.56C3753 1101.32 3758.06 1096.27 3764.29 1096.27 3770.53 1096.27 3775.58 1101.32 3775.58 1107.56L3775.58 1130.14C3775.58 1136.38 3770.53 1141.43 3764.29 1141.43Z" fill="#00196F"/><path d="M3854.62 1089.31C3848.39 1089.31 3843.33 1084.26 3843.33 1078.02L3843.33 1055.44C3843.33 1049.2 3848.39 1044.15 3854.62 1044.15 3860.86 1044.15 3865.92 1049.2 3865.92 1055.44L3865.92 1078.02C3865.92 1084.26 3860.86 1089.31 3854.62 1089.31Z" fill="#00196F"/><path d="M3854.62 1276.93C3848.39 1276.93 3843.33 1271.88 3843.33 1265.64L3843.33 1243.06C3843.33 1236.82 3848.39 1231.77 3854.62 1231.77 3860.86 1231.77 3865.92 1236.82 3865.92 1243.06L3865.92 1265.64C3865.92 1271.88 3860.86 1276.93 3854.62 1276.93Z" fill="#00196F"/><path d="M3854.62 1186.6C3848.39 1186.6 3843.33 1181.55 3843.33 1175.31L3843.33 1151.42C3843.33 1145.18 3848.39 1140.13 3854.62 1140.13 3860.86 1140.13 3865.92 1145.18 3865.92 1151.42L3865.92 1175.31C3865.92 1181.55 3860.86 1186.6 3854.62 1186.6Z" fill="#00196F"/><path d="M3882.85 1230.46C3876.62 1230.46 3871.56 1225.4 3871.56 1219.17L3871.56 1197.89C3871.56 1191.66 3876.62 1186.6 3882.85 1186.6 3889.09 1186.6 3894.15 1191.66 3894.15 1197.89L3894.15 1219.17C3894.15 1225.4 3889.09 1230.46 3882.85 1230.46Z" fill="#00196F"/><path d="M3882.85 1141.43C3876.62 1141.43 3871.56 1136.38 3871.56 1130.14L3871.56 1107.56C3871.56 1101.32 3876.62 1096.27 3882.85 1096.27 3889.09 1096.27 3894.15 1101.32 3894.15 1107.56L3894.15 1130.14C3894.15 1136.38 3889.09 1141.43 3882.85 1141.43Z" fill="#00196F"/></g></g></g><text fill="#1255C8" font-family="Calibri,Calibri_MSFontService,sans-serif" font-weight="400" font-size="92" transform="matrix(1 0 0 1 3525.41 1627)">Hydraulique</text></g></svg>