<svg width="659" height="824" xmlns="http://www.w3.org/2000/svg" xmlns:xlink="http://www.w3.org/1999/xlink" xml:space="preserve" overflow="hidden"><g transform="translate(-997 -865)"><rect x="1002" y="870" width="649" height="650" stroke="#00196F" stroke-width="10.3125" stroke-linejoin="round" stroke-miterlimit="10" fill="none"/><g><g><g><path d="M1432.84 1262.94 1432.84 1160.5 1298.58 1230.12 1298.58 1160.5 1164.33 1230.12 1149.38 1026.25 1109.63 1026.25 1094.72 1230.12 1094.72 1364.38 1534.28 1364.38 1534.28 1262.94ZM1194.16 1329.57 1134.49 1329.57 1134.49 1284.81 1194.16 1284.81ZM1293.61 1329.57 1233.94 1329.57 1233.94 1284.81 1293.61 1284.81ZM1393.06 1329.57 1333.39 1329.57 1333.39 1284.81 1393.06 1284.81Z" fill="#00196F"/><path d="M1219.83 972.64C1215.72 976.432 1209.39 976.432 1205.29 972.64 1196.62 964.521 1185.14 960.078 1173.26 960.242L1169.07 960.327C1141.64 959.61 1118.78 981.212 1117.96 1008.64L1117.96 1014.98 1140.84 1014.98 1140.84 1011.33C1140.6 998.971 1150.27 988.684 1162.62 988.16L1165.72 987.929C1175.12 986.753 1184.55 989.787 1191.5 996.219L1207.71 1011.58C1216.01 1019.29 1227.26 1023 1238.52 1021.74 1239.2 1028.75 1242.4 1035.26 1247.53 1040.08 1261 1052.02 1281.38 1051.61 1294.35 1039.14 1296.29 1037.3 1298 1035.23 1299.45 1032.97 1314.05 1037.22 1329.82 1033.43 1340.89 1023 1356.06 1009.61 1357.5 986.463 1344.11 971.296 1343.47 970.568 1342.8 969.866 1342.1 969.191 1325.74 954.666 1300.96 955.157 1285.18 970.318 1281.04 974.051 1274.75 974.051 1270.61 970.318 1256.94 957.685 1235.86 957.685 1222.19 970.318Z" fill="#00196F"/></g></g></g><path d="M1538.81 1160.5C1417.66 1187.43 1434.71 1344.61 1417.18 1348.45 1399.66 1352.28 1350.99 1287.41 1359.49 1309.96 1351.5 1442.46 1421.94 1480.54 1451.7 1483.74 1481.46 1486.95 1602.77 1486.15 1609.5 1348.44 1564.03 1271.21 1534.23 1253.5 1538.81 1160.5Z" stroke="#00196F" stroke-width="6.875" stroke-linejoin="round" stroke-miterlimit="10" fill="#FFFFFF" fill-rule="evenodd"/><path d="M1520.56 1276.5C1445.27 1293.29 1455.86 1391.28 1444.97 1393.68 1434.08 1396.07 1403.83 1355.62 1409.11 1369.68 1404.15 1452.29 1447.93 1476.03 1466.42 1478.03 1484.92 1480.03 1560.31 1479.53 1564.5 1393.68 1536.24 1345.52 1517.72 1334.48 1520.56 1276.5Z" stroke="#00196F" stroke-width="6.875" stroke-linejoin="round" stroke-miterlimit="10" fill="#00196F" fill-rule="evenodd"/><path d="M1506.25 1372.5C1468.12 1380.89 1473.49 1429.89 1467.97 1431.09 1462.45 1432.28 1447.14 1412.06 1449.81 1419.09 1447.3 1460.4 1469.47 1472.27 1478.83 1473.26 1488.2 1474.26 1526.38 1474.02 1528.5 1431.09 1514.19 1407.01 1504.81 1401.49 1506.25 1372.5Z" stroke="#00196F" stroke-width="6.875" stroke-linejoin="round" stroke-miterlimit="10" fill="#FFFFFF" fill-rule="evenodd"/><text fill="#1255C8" font-family="Arial,Arial_MSFontService,sans-serif" font-weight="400" font-size="83" transform="matrix(1 0 0 1 1113.43 1620)">Incinération</text></g></svg>