<?xml version="1.0" encoding="UTF-8"?>
<svg id="LOGO" xmlns="http://www.w3.org/2000/svg" viewBox="0 0 571.498582677161721 380.021102362199599">
  <path d="m204.587238875514231,140.8629190281099c.531806762570341-4.427673399761261-.1261914351835-10.892045211499862,3.367978863298049-13.934356116289564,1.021680346359062-4.722773246641736,8.450123371005247-3.620361733670507,7.29441361211866-6.624658448361515-.715607331205319-1.883074056098849-4.209777629686869-.987585144919649-5.626100135152228-.643106040799466-1.06753251380178.256301859039013-11.255335461235518,3.478886242659428-15.178243120253683,3.91898867034979-1.657340308691346-.463224460840138-3.314288718513126-.926057022808891-4.975156117006918-1.389281483639934-6.391478622470459.861001810870221-10.080814556735277,5.947457206120816-13.640040067141854,9.992637311650469-2.98509367020506,3.390708997580077-7.018908708593699,11.684072821770314-3.808081290978407,16.651782860299136-.179881579968423,1.083208468500743-.359763159938666,2.166416936981477-.539644739907089,3.257071483931213l7.267764489159163,10.620067397780076c2.506977052422371,1.794896811019498,2.839699190531974,3.130880048738618,5.53792289006924,4.902654826599246.558847784392128.838271676580916,1.109857591441141,1.668705375839636,1.668705375834179,2.506977052420552,2.208350115739449,1.450417706899316,8.714263207382828,1.469620751378898,9.812755731680227.524360684088606,10.471145828302724.975828178921802,9.334247215032519-20.234130403869131,12.660292899558044-24.681398746979539-.421291282060338-2.005346502619432-2.181700992781771-4.079667205820442-3.842568391277382-5.10173945104907Zm-45.152627965406282,63.676119814668709c2.223634171554295-.578050828878986,6.012512418046754-.872758776889896,7.994736887509134-1.859952022949074,3.161448160370128-1.584447119419565,14.034290327382223-9.18532564555062,10.57460712919783-15.373800654899242-1.067924412668617-13.034948216451085-16.801096328645144-2.01671156977136-23.498647966266617-6.590171348061631-6.777890905365894-.872758776889896-14.399540071460251-13.693338313069034-16.437414180039013-19.1854090356901-.796338497813849-2.173863015439565-.467143449504874-1.427687572610012-1.553879007795331-3.149691194359548.011365067144652-.175962591300049-.692877196914196.600780963170109-.685039219575629.416980394529674-1.984575862665224,2.307892427961633-1.640096758539585,4.324603997731174-1.948129268028424,9.950704132879764-.8900023270362-.053690144788561-1.772166676733832-.110907379368655-2.665696093570659-.168516512818314-.172043602628946,2.039833602908402-.377006710088608,3.153610183029741-1.331672350184817,4.198412562538579-.193206141446353.348398092790376-.398169248906925.681120230910892-.591375390353278,1.029518323701268-1.685948925984121-.56629386286113-.843758260725735.237098814550336-1.528797480305002-1.170993814710528-6.240205659792991.309992003829393-5.777373097826057,6.58272526959081-8.647640399987722,10.153315847139311.130110423855513,11.707194854940099,23.30740131915627,26.154546588160883,40.318947339399529,21.749603322699841Zm76.994410911978775-35.561686992468822c-10.115301657031523,1.526837985969905-16.299857677708133,4.749422369599415-20.119304035826644,7.393955924349939-2.663736599233744,1.859952022939979-3.448318131038832,3.111285105380375-4.018530982577431,3.892339547390293-.578050828875348.784581531799631-.968382100440067,2.517950220690182-.681120230903616,4.343807042208937.290788959338897,1.810180866830706,1.029518323701268,3.742634180191089,2.606127465780446,4.814477581519895,12.419275096330239-.918610944328975,33.981158861715812-1.703192476130425,38.175652435589654,8.733466251869686.225733747407503,1.450417706890221.55140170591585,2.323176483780117.581969817543722,2.671182677710021,4.110235317461047-1.01423426789006,1.105938602773676-.654471107949576,7.160384199592954.298626936670189,1.389281483636296.214368680281041,4.807031503047256-.554928795709202,7.076517842046087-1.109857591438413,1.029518323701268-.241017803220529,1.611096242380881-1.178831792030905,1.611096242380881-1.178831792030905,0,0-.191246647114895-.991112234729371-.134029412525706-1.530756974640099,0,0,2.124091859324835.156759546809553,2.996850636212912-.512995616949411,5.740534604323329-.933895000140183,2.720953833822932-3.631726800809702,5.434461589172315-6.670510615800595-1.634218275537023-19.503239016850785-21.638695943323-24.034373717509879-40.690075566485575-21.144903370859538Zm-22.166975616084528,42.415998176898938c-2.881632369306317,2.200512138409977-4.091032272974189,1.657340308700441-5.782467783099491,5.063333362100821-.172435501493965,0,.260220847715573.516522706739124.080339267744421.516522706739124,1.722003621753174,3.425587996760441,5.656276347912353,4.810950491721087,8.553584671902172,7.21799333304989.902934989645473.761851397521241,3.344856830140998,4.994751060361523,4.504485577696869,5.304743064180002,1.301104238555126,1.553487108931222,2.154659970956345,5.855360972371273,3.000377726017177,5.855360972371273.891961821371297,1.209399903669691-.06897420059704,4.056937071540233.795946598947921,5.162875674310271.065055211925937,5.097820462389791-.64663313060737,5.461110712139998-1.534675963310292,6.437330789909538,0,.355844171270292.489873583794179,1.281901194079182.489873583794179,1.626380298199365.241409702091914.244936791899818,2.284770394810039,1.710638554610341,3.176732216183154,1.530756974640099,2.770724989935843.08817724508117,14.148724796556962,8.96311898795102,15.052051685070182,10.674149441420013,8.163253400334725.612146030311123,7.569918515642712-1.879155067430474,13.199937639463315-4.267386763129252,1.522918997297893-.654471107960489,2.732318900968494-.034487100310798,3.731269113039161-1.075370491151261,1.044802379514294-1.067924412669527,1.132979624597283-3.176732216188611,2.135456926471306-4.267386763140166.137948401197718-20.069532879719191-27.176226934525403-39.082506413909869-47.402911259920074-39.779302599499715Zm-32.15177495039643,4.584824845451294c-1.136506714399729,1.209399903669691-4.255629797129586,1.657340308678613-5.128388574017663,3.035256725179352-1.339510327525204,2.093131848829216-4.401024276798125,6.861757262910032-6.804540028320844,9.131243601910683-7.727069961325469,7.336738689749836-24.27343202639895,11.022155635349918-32.43864492107059,4.011084904099334-.532198661432631.038014190100512-.220247163273598.344479104120182.415020900190939,2.349825606739614.59529437902529,3.800243313629835,3.656808328303669,12.70967215679957,2.529707186709857,14.986996473140607.729323791552815,2.529707186709857,1.500188863010408,1.603650163899147,2.882024268174064,3.00429671468919.953098044629769.949179055960485,1.34146982186212,3.429115086561069,2.428205380148938,4.098870250310938,1.245846498302853-.080339267729869,2.48973350227061-.168516512820133,3.73166101190327-.260220847711025.221814758740948.692485298050087.455386483494294,1.385362494971559.681120230907254,2.097050837510324,1.591893197892205-.11835345785039,3.191624373128434-.233179825889238,4.787828458564036-.348006193929905.899407899842117.202611714250452,3.612523756322844,1.607177253710688,4.408862254141241,1.821545933980815,1.771774777861538-.13011042386097,3.547468544395997-.244936791901637,5.31963522112801-.371128227090594,4.060464161346317,1.079289479819636,7.600486627268765-.616065018979498,11.026074624021021-2.927876435609505,1.909723179061984-1.281901194070088,4.003246926761676-1.079289479810541,5.698601425553534-2.529707186709857,2.460732986110088-2.10880780350999,5.805589816251086-6.230408188121146,7.37083389118925-9.077945355989868,3.846487379945756-6.98834059696128,2.544991242521064-23.713016646541291-.941341078618279-27.849901086960017-1.362632360679527-1.488823795860299-2.973728603059499-1.515864817691181-5.966660250604036-1.171385713560085Z" fill="#fff" fill-rule="evenodd" stroke-width="0"/>
  <g>
    <path d="m378.02520565031773,170.358795356609335c16.805014892785039,0,28.17166207914488,10.616540307970354,28.17166207914488,29.622067763679297,0,23.88897923784134-15.610911809126264,30.953740113880485-31.971905296779369,30.953740113880485h-21.894997249246444c.076420277142461-1.323834372838974,0-4.856410760299696,0-9.288395047600716v-42.006463860838267c0-4.424146309960634.076420277142461-7.2485614446814,0-9.2809489691208h25.695240466880932Zm-4.910100781038636,49.07553562441899c9.277029746092012,0,16.824217936788045-3.06935192660967,16.824217936788045-19.453467860739693,0-13.934748015150035-7.547188190696033-18.573263005369881-16.824217936788045-18.573263005369881h-4.868167603324764v38.026730866109574h4.868167603324764Z" fill="#fff" stroke-width="0"/>
    <path d="m430.005494364075275,221.646208186568401c0,4.43198428730102.218287663421506,9.288395047600716.218287663421506,9.288395047600716h-16.246167122511906s.110907376567411-4.856410760299696.110907376567411-9.288395047600716v-42.006463860838267c0-4.424146309960634-.110907376567411-9.2809489691208-.110907376567411-9.2809489691208h38.405304201471154v11.718559922070199s-8.584152566673765-.217895770070754-11.500663861474095-.217895770070754h-10.876760880906659v12.200987427389919l10.876760880906659.114826368040667c2.035914562817197,0,9.047377015812344-.114826368040667,9.047377015812344-.114826368040667v11.15971213767989s-6.222961952439618-.168124613959662-9.047377015812344-.168124613959662l-10.876760880906659.065055211940489v16.529118514908987Z" fill="#fff" stroke-width="0"/>
    <path d="m319.91013222697984,218.687763639329205c-7.646338601551179,0-13.520902469997964-5.135834652490303-13.520902469997964-13.172896617639708v-.681120230899978s14.194576605412294-.348398092799471,19.001607987027455-.348398092799471c8.189902316395091,0,11.561800083181879-.076420279070589,18.014414765902984-.16459752414994v-4.569540789630992c0-20.647191809719516-8.756588063813979-30.686073187680449-26.782367896576034-30.686073187680449-8.312566658682044,0-27.639832823024335,3.123042071390955-27.639832823024335,32.029502503881304,0,19.281032359240271,9.74024442226073,30.80442664552902,26.755719450187826,30.80442664552902,13.360605388570548,0,21.565791760398497-3.40599305340038,27.50932982770064-7.745881106939123-.665836158272214-1.002869200750865-5.648830126738176-9.946785144209571-6.295463241009202-10.922613323131372-3.570982386208925,2.724872822491307-9.452981586979149,5.45719172346071-17.042505600211371,5.45719172346071Zm-13.520902469997964-25.438939256950107c.237098808565861-3.505535365638934,1.492350847971466-11.645666732809332,10.340643244354396-11.645666732809332,9.070499048376405,0,9.567818698084011,7.65417677205005,9.567818698084011,11.691910799108882v.815149643440236s-6.054445443874101.16459752414994-9.674807086084002.16459752414994c-3.620361642208081,0-10.287344999780544-.16459752414994-10.287344999780544-.16459752414994l.053690143426138-.861393709739787Z" fill="#fff" stroke-width="0"/>
  </g>
</svg>