<svg width="660" height="818" xmlns="http://www.w3.org/2000/svg" xmlns:xlink="http://www.w3.org/1999/xlink" xml:space="preserve" overflow="hidden"><g transform="translate(-149 -1689)"><rect x="154" y="1694" width="649" height="650" stroke="#00196F" stroke-width="10.3125" stroke-linejoin="round" stroke-miterlimit="10" fill="none"/><path d="M229 2188.55 594.52 2188.55 594.52 2219.49 426.306 2219.49 426.306 2265.89 477.756 2265.89 477.756 2295 345.764 2295 345.764 2265.89 397.219 2265.89 397.219 2219.49 229 2219.49ZM475.238 2117.43 571.473 2117.43 594.524 2168.69 594.519 2168.69 594.519 2169.15 481.861 2169.15ZM367.836 2117.43 455.693 2117.43 462.315 2169.15 361.209 2169.15ZM252.056 2117.43 348.285 2117.43 341.663 2169.15 229 2169.15 229 2168.69ZM466.775 2051.39 541.775 2051.39 562.746 2098.03 472.751 2098.03ZM376.296 2051.39 447.229 2051.39 453.206 2098.03 370.318 2098.03ZM281.754 2051.39 356.749 2051.39 350.773 2098.03 260.782 2098.03ZM459.023 1990.89 514.564 1990.89 533.044 2031.99 464.288 2031.99ZM384.041 1990.89 439.476 1990.89 444.741 2031.99 378.777 2031.99ZM308.964 1990.89 364.495 1990.89 359.23 2031.99 290.479 2031.99ZM591.031 1938.61C593.874 1938.95 596.735 1939.12 599.598 1939.13 602.462 1939.12 605.321 1938.95 608.165 1938.61L608.165 1983.93 591.031 1983.93ZM658.699 1910.47 690.782 1942.58 678.666 1954.7 646.591 1922.61C651.071 1919.04 655.133 1914.96 658.699 1910.47ZM540.505 1910.47C544.068 1914.96 548.126 1919.04 552.602 1922.61L520.527 1954.7 508.411 1942.58ZM674.565 1854.89 720 1854.89 720 1872.04 674.599 1872.04C675.286 1866.34 675.274 1860.58 674.565 1854.89ZM479.208 1854.89 524.628 1854.89C524.284 1857.77 524.104 1860.67 524.091 1863.58 524.1 1866.4 524.269 1869.23 524.594 1872.04L479.208 1872.04ZM599.594 1803.26C599.595 1803.26 599.597 1803.26 599.598 1803.26 632.888 1803.26 659.875 1830.26 659.875 1863.57 659.875 1863.57 659.875 1863.58 659.875 1863.58 659.875 1896.89 632.887 1923.9 599.594 1923.9 566.302 1923.9 539.313 1896.89 539.313 1863.58 539.313 1830.26 566.302 1803.26 599.594 1803.26ZM678.665 1772.24 690.781 1784.34 658.592 1816.55C655.017 1812.08 650.948 1808.02 646.461 1804.46ZM520.527 1772.24 552.731 1804.44C548.245 1808.02 544.176 1812.08 540.6 1816.57L508.411 1784.36ZM591.031 1743 608.165 1743 608.165 1788.54C605.321 1788.21 602.462 1788.03 599.598 1788.02 596.735 1788.03 593.874 1788.21 591.031 1788.54Z" fill="#00196F" fill-rule="evenodd"/><text fill="#1255C8" font-family="Arial,Arial_MSFontService,sans-serif" font-weight="400" font-size="83" transform="matrix(1 0 0 1 356.144 2438)">Solaire</text></g></svg>