<svg width="660" height="824" xmlns="http://www.w3.org/2000/svg" xmlns:xlink="http://www.w3.org/1999/xlink" xml:space="preserve" overflow="hidden"><g transform="translate(-2612 -38)"><rect x="2617" y="43" width="650" height="650" stroke="#00196F" stroke-width="10.3125" stroke-linejoin="round" stroke-miterlimit="10" fill="none"/><g><g><g><path d="M2854.29 333.957 2820.76 358.151 2806.72 643.36 2780.58 643.36 2780.58 668.277 2805.49 668.277 2886.47 668.277 2911.39 668.277 2911.39 643.36 2884.84 643.36 2864.69 336.1 2854.29 333.957Z" fill="#00196F"/><path d="M2809.52 256.485 2812.43 260.646C2814.12 257.906 2816.17 255.408 2818.53 253.221 2830.54 242.359 2848.31 240.831 2861.99 249.484L2863.24 244.077 2816.34 102.905C2814.48 96.9969 2808.19 93.7103 2802.28 95.5645 2797.14 97.1786 2793.87 102.224 2794.51 107.577Z" fill="#00196F"/><path d="M3017.52 325.803 2882.53 265.019 2875.85 265.76C2883.76 283.119 2876.48 303.626 2859.4 312.112L2865.82 317.269 3010.65 347.057C3016.68 348.433 3022.69 344.654 3024.07 338.616 3025.27 333.321 3022.51 327.924 3017.52 325.803Z" fill="#00196F"/><path d="M2840.55 316.173C2821.71 315.123 2806.92 299.62 2806.76 280.748L2799.91 283.096 2702.06 393.253C2697.9 397.832 2698.23 404.923 2702.81 409.092 2706.76 412.694 2712.71 413 2717.01 409.822L2837.61 322.975Z" fill="#00196F"/><path d="M2831.05 267.094C2823.88 273.581 2823.32 284.653 2829.81 291.826 2836.3 298.998 2847.37 299.554 2854.54 293.067 2861.71 286.581 2862.27 275.512 2855.79 268.339 2849.3 261.165 2838.23 260.605 2831.06 267.09 2831.06 267.091 2831.05 267.092 2831.05 267.094Z" fill="#00196F"/><path d="M3078.99 266.595 3067.39 531.235 3048.43 531.235 3048.43 549.922 3141.87 549.922 3141.87 531.235 3122.91 531.235 3112.88 300.582 3078.99 266.595Z" fill="#00196F"/><path d="M2959.44 261.575 3074.56 256.928 3081.32 252.505C3070.07 244.799 3067.2 229.435 3074.91 218.187 3075.09 217.927 3075.27 217.669 3075.46 217.416 3075.52 217.341 3075.6 217.279 3075.66 217.198L3067.24 215.03 2956.86 244.463C2952.23 245.77 2949.53 250.589 2950.84 255.224 2951.92 259.057 2955.46 261.671 2959.44 261.575Z" fill="#00196F"/><path d="M3091.81 207.561C3093.04 207.373 3094.29 207.28 3095.54 207.281 3105.65 207.355 3114.71 213.498 3118.53 222.854L3124.87 216.806 3154.87 105.478C3156.05 100.81 3153.23 96.0646 3148.56 94.8798 3144.7 93.8991 3140.66 95.6645 3138.75 99.1677L3084.83 201.912 3085.03 209.723C3087.17 208.68 3089.46 207.952 3091.81 207.561Z" fill="#00196F"/><path d="M3189.76 335.639 3128.41 238.633 3120.31 234.447C3119.35 245.88 3110.65 255.151 3099.3 256.834 3098.07 257.018 3096.82 257.113 3095.57 257.114 3094.58 257.083 3093.59 256.992 3092.61 256.84L3095.32 265.281 3176.3 346.447C3179.82 349.733 3185.34 349.544 3188.62 346.023 3191.26 343.196 3191.72 338.969 3189.76 335.639Z" fill="#00196F"/><path d="M3097.41 244.513C3104.21 243.483 3108.89 237.132 3107.86 230.329 3106.83 223.526 3100.48 218.847 3093.67 219.877 3086.87 220.907 3082.19 227.257 3083.22 234.06 3084.25 240.863 3090.6 245.543 3097.4 244.513 3097.4 244.513 3097.41 244.513 3097.41 244.513Z" fill="#00196F"/></g></g></g><text fill="#1255C8" font-family="Arial,Arial_MSFontService,sans-serif" font-weight="400" font-size="83" transform="matrix(1 0 0 1 2662.29 793)">Éolien terrestre</text></g></svg>