<svg width="659" height="824" xmlns="http://www.w3.org/2000/svg" xmlns:xlink="http://www.w3.org/1999/xlink" xml:space="preserve" overflow="hidden"><g transform="translate(-3411 -38)"><rect x="3416" y="43" width="649" height="650" stroke="#00196F" stroke-width="10.3125" stroke-linejoin="round" stroke-miterlimit="10" fill="none"/><path d="M3761.55 270 3733.09 290.48 3721.18 531.908 3699 531.908 3699 553 3720.14 553 3788.86 553 3810 553 3810 531.908 3787.47 531.908 3770.37 271.814 3761.55 270Z" fill="#00196F" fill-rule="evenodd"/><path d="M3723.72 203.482 3726.18 207C3727.6 204.684 3729.33 202.572 3731.32 200.723 3741.44 191.54 3756.42 190.248 3767.95 197.563L3769 192.992 3729.47 73.6435C3727.91 68.6482 3722.6 65.87 3717.62 67.4375 3713.29 68.8019 3710.53 73.0675 3711.07 77.5933Z" fill="#00196F" fill-rule="evenodd"/><path d="M3900.2 262.687 3785.64 211 3779.96 211.63C3786.68 226.391 3780.5 243.829 3766 251.044L3771.45 255.43 3894.37 280.76C3899.49 281.929 3904.59 278.716 3905.76 273.581 3906.78 269.079 3904.44 264.49 3900.2 262.687Z" fill="#00196F" fill-rule="evenodd"/><path d="M3750 254.226C3734.01 253.33 3721.46 240.102 3721.32 224L3715.51 226.004 3632.48 319.992C3628.94 323.899 3629.22 329.95 3633.11 333.507 3636.47 336.58 3641.51 336.841 3645.17 334.13L3747.51 260.03Z" fill="#00196F" fill-rule="evenodd"/><path d="M3741.94 212.875C3735.79 218.432 3735.32 227.917 3740.88 234.062 3746.43 240.206 3755.92 240.682 3762.06 235.125 3768.2 229.57 3768.68 220.087 3763.13 213.942 3757.57 207.796 3748.09 207.317 3741.94 212.872 3741.94 212.873 3741.94 212.874 3741.94 212.875Z" fill="#00196F" fill-rule="evenodd"/><path d="M3891.3 381 3883.97 546.326 3872 546.326 3872 558 3931 558 3931 546.326 3919.03 546.326 3912.7 402.232 3891.3 381Z" fill="#00196F" fill-rule="evenodd"/><path d="M3816.6 377.999 3888.76 375.103 3893 372.348C3885.95 367.547 3884.15 357.974 3888.98 350.967 3889.09 350.805 3889.21 350.644 3889.33 350.486 3889.36 350.44 3889.41 350.401 3889.45 350.35L3884.17 349 3814.98 367.338C3812.08 368.152 3810.39 371.154 3811.21 374.042 3811.89 376.43 3814.1 378.059 3816.6 377.999Z" fill="#00196F" fill-rule="evenodd"/><path d="M3899.37 343.46C3900.14 343.343 3900.92 343.285 3901.7 343.286 3908.03 343.332 3913.7 347.164 3916.09 353L3920.06 349.227 3938.83 279.779C3939.57 276.867 3937.81 273.907 3934.88 273.168 3932.46 272.556 3929.94 273.657 3928.75 275.843L3895 339.936 3895.13 344.809C3896.47 344.158 3897.9 343.704 3899.37 343.46Z" fill="#00196F" fill-rule="evenodd"/><path d="M3960.25 423.833 3922.2 363.599 3917.18 361C3916.59 368.099 3911.19 373.856 3904.15 374.901 3903.39 375.016 3902.61 375.074 3901.83 375.075 3901.22 375.056 3900.61 374.999 3900 374.905L3901.68 380.146 3951.9 430.544C3954.08 432.584 3957.51 432.467 3959.55 430.28 3961.18 428.525 3961.47 425.901 3960.25 423.833Z" fill="#00196F" fill-rule="evenodd"/><path d="M3902.62 366.915C3906.72 366.294 3909.53 362.472 3908.91 358.377 3908.29 354.282 3904.47 351.465 3900.38 352.086 3896.28 352.706 3893.47 356.528 3894.09 360.623 3894.71 364.718 3898.53 367.535 3902.62 366.915 3902.62 366.915 3902.62 366.915 3902.62 366.915Z" fill="#00196F" fill-rule="evenodd"/><path d="M19.297 0 11.9731 165.326 0 165.326 0 177 59.0004 177 59.0004 165.326 47.0312 165.326 40.6983 21.2319 19.297 0Z" fill="#00196F" fill-rule="evenodd" transform="matrix(-1 0 0 1 3599 377)"/><path d="M5.60037 28.9984 77.7633 26.1032 81.9998 23.3477C74.9495 18.5465 73.1503 8.97425 77.9802 1.96682 78.0924 1.80473 78.2075 1.64441 78.3256 1.48644 78.3605 1.43996 78.4114 1.40113 78.4505 1.35053L73.1713 0 3.98378 18.3374C1.07793 19.1519-0.612957 22.1539 0.206588 25.0418 0.884659 27.4302 3.10445 29.0584 5.60037 28.9984Z" fill="#00196F" fill-rule="evenodd" transform="matrix(-1 0 0 1 3660 345)"/><path d="M4.36596 70.4604C5.14011 70.3432 5.92224 70.2849 6.70495 70.2858 13.0273 70.332 18.7016 74.1643 21.089 80.0004L25.0576 76.2273 43.831 6.77892C44.5726 3.86677 42.8051 0.906605 39.8837 0.167595 37.4649-0.444172 34.9383 0.657127 33.7467 2.84264L0 66.9362 0.128532 71.8088C1.46852 71.1585 2.89567 70.7043 4.36596 70.4604Z" fill="#00196F" fill-rule="evenodd" transform="matrix(-1 0 0 1 3576 270)"/><path d="M60.2493 62.8326 22.2013 2.59928 17.1794 0C16.5856 7.09892 11.191 12.8557 4.15276 13.9009 3.38558 14.0155 2.61078 14.0738 1.8351 14.075 1.22047 14.0557 0.6076 13.9988 0 13.9047L1.68049 19.1458 51.9011 69.5433C54.0846 71.5838 57.5068 71.4662 59.5451 69.28 61.182 67.5248 61.4681 64.9003 60.2493 62.8326Z" fill="#00196F" fill-rule="evenodd" transform="matrix(-1 0 0 1 3571 357)"/><path d="M8.62327 14.9149C12.7182 14.2944 15.535 10.4718 14.9149 6.37686 14.2947 2.28222 10.4718-0.534602 6.37686 0.0855478 2.28222 0.705698-0.534602 4.52806 0.0855478 8.62299 0.705698 12.7179 4.52806 15.535 8.62299 14.9149 8.62299 14.9149 8.62327 14.9149 8.62327 14.9149Z" fill="#00196F" fill-rule="evenodd" transform="matrix(-1 0 0 1 3577 348)"/><path d="M3984.25 520C3968.05 520.427 3952.07 522.729 3937 526.807 3926.97 529.632 3916.33 531.333 3905.5 531.844 3894.67 531.333 3884.03 529.632 3874 526.807 3858.93 522.729 3842.95 520.427 3826.75 520 3810.55 520.427 3794.57 522.729 3779.5 526.807 3769.47 529.632 3758.83 531.333 3748 531.844 3737.17 531.333 3726.53 529.632 3716.5 526.807 3701.43 522.729 3685.45 520.427 3669.25 520 3653.05 520.427 3637.07 522.729 3622 526.807 3611.97 529.632 3601.33 531.333 3590.5 531.844 3579.67 531.333 3569.03 529.632 3559 526.807 3543.93 522.729 3527.95 520.427 3511.75 520 3495.55 520.427 3479.57 522.729 3464.5 526.807 3454.47 529.632 3443.83 531.333 3433 531.844L3433 564C3449.2 563.573 3465.18 561.271 3480.25 557.194 3490.25 554.259 3500.89 552.449 3511.75 551.835 3522.61 552.449 3533.25 554.259 3543.25 557.194 3558.32 561.271 3574.3 563.573 3590.5 564 3606.7 563.573 3622.68 561.271 3637.75 557.194 3647.75 554.259 3658.39 552.449 3669.25 551.835 3680.08 552.346 3690.72 554.047 3700.75 556.873 3715.78 561.084 3731.76 563.496 3748 564 3764.2 563.573 3780.18 561.271 3795.25 557.194 3805.25 554.259 3815.89 552.449 3826.75 551.835 3837.61 552.449 3848.25 554.259 3858.25 557.194 3873.32 561.271 3889.3 563.573 3905.5 564 3921.7 563.573 3937.68 561.271 3952.75 557.194 3962.75 554.259 3973.39 552.449 3984.25 551.835 3995.08 552.346 4005.72 554.047 4015.75 556.873 4030.78 561.084 4046.76 563.496 4063 564L4063 531.844C4052.17 531.333 4041.53 529.632 4031.5 526.807 4016.43 522.729 4000.45 520.427 3984.25 520Z" fill="#00196F" fill-rule="evenodd"/><path d="M3986.25 570C3970.05 570.456 3954.07 572.915 3939 577.271 3928.97 580.288 3918.33 582.105 3907.5 582.652 3896.67 582.105 3886.03 580.288 3876 577.271 3860.93 572.915 3844.95 570.456 3828.75 570 3812.55 570.456 3796.57 572.915 3781.5 577.271 3771.47 580.288 3760.83 582.105 3750 582.652 3739.17 582.105 3728.53 580.288 3718.5 577.271 3703.43 572.915 3687.45 570.456 3671.25 570 3655.05 570.456 3639.07 572.915 3624 577.271 3613.97 580.288 3603.33 582.105 3592.5 582.652 3581.67 582.105 3571.03 580.288 3561 577.271 3545.93 572.915 3529.95 570.456 3513.75 570 3497.55 570.456 3481.57 572.915 3466.5 577.271 3456.47 580.288 3445.83 582.105 3435 582.652L3435 617C3451.2 616.544 3467.18 614.085 3482.25 609.73 3492.25 606.595 3502.89 604.661 3513.75 604.005 3524.61 604.661 3535.25 606.595 3545.25 609.73 3560.32 614.085 3576.3 616.544 3592.5 617 3608.7 616.544 3624.68 614.085 3639.75 609.73 3649.75 606.595 3660.39 604.661 3671.25 604.005 3682.08 604.551 3692.72 606.368 3702.75 609.386 3717.78 613.885 3733.76 616.461 3750 617 3766.2 616.544 3782.18 614.085 3797.25 609.73 3807.25 606.595 3817.89 604.662 3828.75 604.005 3839.61 604.662 3850.25 606.595 3860.25 609.73 3875.32 614.085 3891.3 616.544 3907.5 617 3923.7 616.544 3939.68 614.085 3954.75 609.73 3964.75 606.595 3975.39 604.662 3986.25 604.005 3997.08 604.551 4007.72 606.368 4017.75 609.386 4032.78 613.885 4048.76 616.461 4065 617L4065 582.652C4054.17 582.105 4043.53 580.288 4033.5 577.271 4018.43 572.915 4002.45 570.456 3986.25 570Z" fill="#00196F" fill-rule="evenodd"/><path d="M3986.25 622C3970.05 622.456 3954.07 624.915 3939 629.27 3928.97 632.288 3918.33 634.105 3907.5 634.651 3896.67 634.105 3886.03 632.288 3876 629.27 3860.93 624.915 3844.95 622.456 3828.75 622 3812.55 622.456 3796.57 624.915 3781.5 629.27 3771.47 632.288 3760.83 634.105 3750 634.651 3739.17 634.105 3728.53 632.288 3718.5 629.27 3703.43 624.915 3687.45 622.456 3671.25 622 3655.05 622.456 3639.07 624.915 3624 629.27 3613.97 632.288 3603.33 634.105 3592.5 634.651 3581.67 634.105 3571.03 632.288 3561 629.27 3545.93 624.915 3529.95 622.456 3513.75 622 3497.55 622.456 3481.57 624.915 3466.5 629.27 3456.47 632.288 3445.83 634.105 3435 634.651L3435 669C3451.2 668.544 3467.18 666.085 3482.25 661.73 3492.25 658.595 3502.89 656.661 3513.75 656.005 3524.61 656.661 3535.25 658.595 3545.25 661.73 3560.32 666.085 3576.3 668.544 3592.5 669 3608.7 668.544 3624.68 666.085 3639.75 661.73 3649.75 658.595 3660.39 656.661 3671.25 656.005 3682.08 656.551 3692.72 658.368 3702.75 661.386 3717.78 665.885 3733.76 668.461 3750 669 3766.2 668.544 3782.18 666.085 3797.25 661.73 3807.25 658.595 3817.89 656.662 3828.75 656.005 3839.61 656.662 3850.25 658.595 3860.25 661.73 3875.32 666.085 3891.3 668.544 3907.5 669 3923.7 668.544 3939.68 666.085 3954.75 661.73 3964.75 658.595 3975.39 656.662 3986.25 656.005 3997.08 656.551 4007.72 658.368 4017.75 661.386 4032.78 665.885 4048.76 668.461 4065 669L4065 634.651C4054.17 634.105 4043.53 632.288 4033.5 629.27 4018.43 624.915 4002.45 622.456 3986.25 622Z" fill="#00196F" fill-rule="evenodd"/><text fill="#1255C8" font-family="Arial,Arial_MSFontService,sans-serif" font-weight="400" font-size="83" transform="matrix(1 0 0 1 3486 793)">Éolien en mer</text></g></svg>